<?xml version="1.0" standalone="no"?>
<!DOCTYPE svg PUBLIC "-//W3C//DTD SVG 1.1//EN" "http://www.w3.org/Graphics/SVG/1.1/DTD/svg11.dtd" >
<svg>
<metadata>
Created by FontForge 20120731 at Thu Jan 31 22:24:45 2013
 By Stefan Warting
Copyright 2006 House Industries/Brand Design Co., Inc. All Rights Reserved.
</metadata>
<defs>
<font id="UnitedItalicCond-Light" horiz-adv-x="338" >
  <font-face 
    font-family="United Italic Cd Lt"
    font-weight="300"
    font-stretch="normal"
    units-per-em="1000"
    panose-1="0 0 0 0 0 0 0 0 0 0"
    ascent="760"
    descent="-240"
    x-height="484"
    cap-height="690"
    bbox="-127 -170 696 840"
    underline-thickness="50"
    underline-position="-50"
    unicode-range="U+0020-FB02"
  />
<missing-glyph horiz-adv-x="145" 
 />
    <glyph glyph-name=".notdef" horiz-adv-x="145" 
 />
    <glyph glyph-name=".null" horiz-adv-x="0" 
 />
    <glyph glyph-name="nonmarkingreturn" horiz-adv-x="333" 
 />
    <glyph glyph-name="space" unicode=" " horiz-adv-x="145" 
 />
    <glyph glyph-name="exclam" unicode="!" horiz-adv-x="172" 
d="M37 179l90 511h40l-90 -511h-40zM5 0l19 108h40l-19 -108h-40z" />
    <glyph glyph-name="quotedbl" unicode="&#x22;" horiz-adv-x="218" 
d="M65 458l41 232h35l-41 -232h-35zM159 458l41 232h35l-41 -232h-35z" />
    <glyph glyph-name="numbersign" unicode="#" horiz-adv-x="362" 
d="M67 534l6 32h66l22 124h36l-22 -124h88l22 124h35l-22 -124h69l-6 -32h-69l-33 -192h68l-6 -32h-68l-21 -124h-35l21 124h-88l-21 -124h-36l21 124h-66l6 32h66l33 192h-66zM169 534l-33 -192h88l33 192h-88z" />
    <glyph glyph-name="dollar" unicode="$" horiz-adv-x="320" 
d="M56 20l-64 64l19 103h39l-16 -90l42 -42h71l51 51l33 184l-31 31l-95 27l-56 56l35 198l68 68h42l16 94h35l-16 -94h30l66 -66l-18 -101h-40l16 88l-44 44h-67l-51 -51l-30 -167l33 -33l94 -26l55 -55l-38 -215l-68 -68h-46l-15 -95h-35l15 95h-30z" />
    <glyph glyph-name="percent" unicode="%" horiz-adv-x="501" 
d="M100 366l-51 51l39 222l51 51h85l51 -51l-39 -222l-51 -51h-85zM120 396h48l33 33l35 199l-32 32h-48l-33 -33l-35 -199zM278 0l-51 51l39 222l51 51h85l51 -51l-39 -222l-51 -51h-85zM298 30h48l33 33l35 199l-32 32h-48l-33 -33l-35 -199zM35 0l394 690h37l-394 -690
h-37z" />
    <glyph glyph-name="ampersand" unicode="&#x26;" horiz-adv-x="386" 
d="M83 0l-68 68l39 224l65 65l-45 45l39 220l68 68h120l68 -68l-16 -93h-40l14 80l-46 46h-80l-51 -51l-34 -191l40 -40h220l-6 -36h-51l-47 -269l-68 -68h-121zM103 35h81l51 51l44 251h-130l-57 -57l-35 -199z" />
    <glyph glyph-name="quotesingle" unicode="'" horiz-adv-x="124" 
d="M65 458l41 232h35l-41 -232h-35z" />
    <glyph glyph-name="parenleft" unicode="(" horiz-adv-x="207" 
d="M82 -51l-64 64l117 661l66 66h57l-6 -35h-31l-49 -49l-112 -630l42 -42h23l-6 -35h-37z" />
    <glyph glyph-name="parenright" unicode=")" horiz-adv-x="207" 
d="M130 740l64 -64l-117 -661l-66 -66h-57l6 35h31l49 49l112 630l-42 42h-23l6 35h37z" />
    <glyph glyph-name="asterisk" unicode="*" horiz-adv-x="279" 
d="M90 442l-25 22l87 88l-102 32l14 31l100 -38l15 113h34l-23 -113l112 38l7 -31l-116 -32l57 -92l-30 -18l-48 94z" />
    <glyph glyph-name="plus" unicode="+" horiz-adv-x="280" 
d="M8 327l6 34h113l24 132h36l-24 -132h112l-6 -34h-112l-23 -133h-36l23 133h-113z" />
    <glyph glyph-name="comma" unicode="," horiz-adv-x="160" 
d="M-24 -85l5 28h18l8 8l9 49h-25l16 92h56l-27 -154l-23 -23h-37z" />
    <glyph glyph-name="hyphen" unicode="-" horiz-adv-x="190" 
d="M14 326l7 37h155l-7 -37h-155z" />
    <glyph glyph-name="period" unicode="." horiz-adv-x="160" 
d="M-9 0l16 92h56l-16 -92h-56z" />
    <glyph glyph-name="slash" unicode="/" horiz-adv-x="218" 
d="M-51 -61l288 811h39l-289 -811h-38z" />
    <glyph glyph-name="zero" unicode="0" horiz-adv-x="372" 
d="M77 0l-68 68l98 554l68 68h120l68 -68l-98 -554l-68 -68h-120zM97 35h80l51 51l93 523l-46 46h-80l-51 -51l-93 -523z" />
    <glyph glyph-name="one" unicode="1" horiz-adv-x="282" 
d="M-26 0l6 35h96l110 620h-94l6 35h134l-116 -655h86l-6 -35h-222z" />
    <glyph glyph-name="two" unicode="2" horiz-adv-x="332" 
d="M-10 0l51 290l61 61h111l44 44l38 214l-46 46h-66l-51 -51l-15 -81h-40l18 99l68 68h106l68 -68l-43 -245l-61 -61h-111l-44 -44l-42 -237h193l-6 -35h-233z" />
    <glyph glyph-name="three" unicode="3" horiz-adv-x="350" 
d="M61 0l-68 68l20 114h40l-18 -101l46 -46h78l51 51l37 211l-40 40h-108l7 36h108l57 57l32 179l-46 46h-78l-51 -51l-17 -96h-40l20 114l68 68h118l68 -68l-36 -204l-65 -65l45 -45l-42 -240l-67 -68h-119z" />
    <glyph glyph-name="four" unicode="4" horiz-adv-x="335" 
d="M-5 205l5 30l160 455h37l-156 -451h171l80 451h39l-80 -451h48l-6 -34h-48l-36 -205h-39l36 205h-211z" />
    <glyph glyph-name="five" unicode="5" horiz-adv-x="335" 
d="M65 0l-68 68l21 118h40l-19 -105l46 -46h72l51 51l48 274l-40 40h-72l-60 -60h-40l62 350h242l-6 -35h-202l-46 -264l44 44h98l62 -62l-53 -305l-68 -68h-112z" />
    <glyph glyph-name="six" unicode="6" horiz-adv-x="358" 
d="M77 0l-68 68l98 554l68 68h117l68 -68l-20 -111h-40l18 98l-46 46h-77l-51 -51l-44 -244l55 55h96l63 -63l-50 -284l-67 -68h-120zM158 380l-66 -66l-41 -233l46 -46h79l51 51l45 253l-41 41h-73z" />
    <glyph glyph-name="seven" unicode="7" horiz-adv-x="284" 
d="M53 0l43 243l181 412h-217l6 35h259l-5 -29l-184 -418l-43 -243h-40z" />
    <glyph glyph-name="eight" unicode="8" horiz-adv-x="377" 
d="M83 0l-68 68l39 224l65 65l-45 45l39 220l68 68h123l68 -68l-36 -204l-65 -65l45 -45l-42 -240l-68 -68h-123zM103 35h83l51 51l37 211l-40 40h-85l-57 -57l-35 -199zM156 373h85l57 57l32 179l-46 46h-83l-51 -51l-34 -191z" />
    <glyph glyph-name="nine" unicode="9" horiz-adv-x="358" 
d="M66 0l-68 68l20 111h40l-18 -98l46 -46h77l51 51l46 260l-54 -54h-96l-63 63l47 267l67 68h120l68 -68l-98 -554l-68 -68h-117zM130 327h73l65 65l39 217l-46 46h-79l-51 -51l-42 -236z" />
    <glyph glyph-name="colon" unicode=":" horiz-adv-x="170" 
d="M-4 0l16 92h56l-16 -92h-56zM50 311l16 92h56l-16 -92h-56z" />
    <glyph glyph-name="semicolon" unicode=";" horiz-adv-x="170" 
d="M-19 -85l5 28h18l8 8l9 49h-25l16 92h56l-27 -154l-23 -23h-37zM50 311l16 92h56l-16 -92h-56z" />
    <glyph glyph-name="less" unicode="&#x3c;" 
d="M272 196l-247 130l7 38l293 132l-7 -40l-253 -113l214 -110z" />
    <glyph glyph-name="equal" unicode="=" horiz-adv-x="331" 
d="M25 252l6 36h257l-7 -36h-256zM50 399l6 36h257l-7 -36h-256z" />
    <glyph glyph-name="greater" unicode="&#x3e;" 
d="M73 494l247 -130l-7 -38l-293 -132l7 40l253 113l-214 110z" />
    <glyph glyph-name="question" unicode="?" horiz-adv-x="319" 
d="M95 179l25 143l48 48h51l31 31l37 208l-46 46h-76l-51 -51l-14 -80h-40l17 98l68 68h116l68 -68l-42 -239l-48 -48h-51l-31 -31l-22 -125h-40zM63 0l19 108h40l-19 -108h-40z" />
    <glyph glyph-name="at" unicode="@" horiz-adv-x="570" 
d="M179 0l-59 59l65 366l59 59h75l53 -54l13 54h33l-78 -444l7 -7h42l40 40l72 411l-74 74h-233l-78 -78l-85 -482l74 -74h256l-6 -33h-270l-95 95l90 510l95 95h272l95 -95l-77 -439l-57 -57h-81l-21 21l8 57l-78 -78h-57zM199 33h28l88 88l48 273l-56 57h-44l-42 -42
l-60 -338z" />
    <glyph glyph-name="A" unicode="A" horiz-adv-x="331" 
d="M-44 0l237 690h62l-5 -690h-39l3 218h-144l-73 -218h-41zM220 661l-138 -407h132z" />
    <glyph glyph-name="B" unicode="B" horiz-adv-x="369" 
d="M3 0l122 690h171l68 -68l-35 -199l-65 -65l45 -45l-43 -245l-68 -68h-195zM227 342h-124l-54 -307h129l51 51l38 216zM159 655l-49 -277h124l57 57l31 174l-46 46h-117z" />
    <glyph glyph-name="C" unicode="C" horiz-adv-x="350" 
d="M77 0l-68 68l98 554l68 68h107l68 -68l-20 -111h-40l18 98l-46 46h-67l-51 -51l-93 -523l46 -46h67l51 51l17 97h40l-20 -115l-68 -68h-107z" />
    <glyph glyph-name="D" unicode="D" horiz-adv-x="374" 
d="M3 0l122 690h172l68 -68l-98 -554l-68 -68h-196zM49 35h130l51 51l93 523l-46 46h-118z" />
    <glyph glyph-name="E" unicode="E" horiz-adv-x="320" 
d="M3 0l122 690h212l-6 -35h-172l-52 -291h162l-6 -35h-162l-52 -294h176l-6 -35h-216z" />
    <glyph glyph-name="F" unicode="F" horiz-adv-x="306" 
d="M3 0l122 690h208l-6 -35h-168l-53 -295h157l-6 -35h-157l-57 -325h-40z" />
    <glyph glyph-name="G" unicode="G" horiz-adv-x="357" 
d="M77 0l-68 68l98 554l68 68h111l68 -68l-17 -99h-40l15 86l-46 46h-71l-51 -51l-93 -523l46 -46h71l51 51l39 219h-87l6 35h127l-48 -272l-68 -68h-111z" />
    <glyph glyph-name="H" unicode="H" horiz-adv-x="375" 
d="M210 0l57 324h-167l-57 -324h-40l122 690h40l-58 -328h167l58 328h40l-122 -690h-40z" />
    <glyph glyph-name="I" unicode="I" horiz-adv-x="250" 
d="M88 657l6 33h184l-6 -33h-73l-110 -624h73l-6 -33h-184l6 33h71l110 624h-71z" />
    <glyph glyph-name="J" unicode="J" horiz-adv-x="243" 
d="M-39 0l6 35h78l51 51l107 604h40l-110 -622l-68 -68h-104z" />
    <glyph glyph-name="K" unicode="K" horiz-adv-x="374" 
d="M3 0l122 690h40l-76 -430l254 430h43l-170 -285l72 -405h-40l-61 359l-112 -176l-32 -183h-40z" />
    <glyph glyph-name="L" unicode="L" horiz-adv-x="281" 
d="M165 690l-116 -655h165l-6 -35h-205l122 690h40z" />
    <glyph glyph-name="M" unicode="M" horiz-adv-x="520" 
d="M3 0l122 690h68l12 -652l242 652h70l-122 -690h-39l116 658l-244 -658h-58l-13 658l-116 -658h-38z" />
    <glyph glyph-name="N" unicode="N" horiz-adv-x="388" 
d="M3 0l122 690h42l75 -593l105 593h38l-122 -690h-42l-75 596l-105 -596h-38z" />
    <glyph glyph-name="O" unicode="O" horiz-adv-x="372" 
d="M77 0l-68 68l98 554l68 68h120l68 -68l-98 -554l-68 -68h-120zM97 35h80l51 51l93 523l-46 46h-80l-51 -51l-93 -523z" />
    <glyph glyph-name="P" unicode="P" horiz-adv-x="350" 
d="M3 0l122 690h165l68 -68l-48 -266l-68 -68h-148l-51 -288h-40zM159 655l-59 -332h122l51 51l43 235l-46 46h-111z" />
    <glyph glyph-name="Q" unicode="Q" horiz-adv-x="372" 
d="M217 -124l-68 68l10 56h-82l-68 68l98 554l68 68h120l68 -68l-98 -554l-68 -68l-8 -42l55 -55zM97 35h80l51 51l93 523l-46 46h-80l-51 -51l-93 -523z" />
    <glyph glyph-name="R" unicode="R" horiz-adv-x="370" 
d="M203 318h-104l-56 -318h-40l122 690h166l68 -68l-39 -223l-79 -79l28 -285h41l-6 -35h-71zM159 655l-53 -301h119l57 57l35 198l-46 46h-112z" />
    <glyph glyph-name="S" unicode="S" 
d="M62 0l-64 64l19 103h39l-16 -90l42 -42h74l51 51l36 206l-31 31l-95 27l-56 56l38 216l68 68h107l66 -66l-18 -101h-40l16 88l-44 44h-67l-51 -51l-33 -185l33 -33l94 -26l55 -55l-41 -237l-68 -68h-114z" />
    <glyph glyph-name="T" unicode="T" horiz-adv-x="285" 
d="M333 656h-115l-115 -656h-40l116 656h-117l7 34h271z" />
    <glyph glyph-name="U" unicode="U" horiz-adv-x="366" 
d="M80 0l-68 68l110 622h40l-108 -609l46 -46h71l51 51l107 604h40l-110 -622l-68 -68h-111z" />
    <glyph glyph-name="V" unicode="V" horiz-adv-x="330" 
d="M75 0l12 690h39l-14 -654l209 654h39l-223 -690h-62z" />
    <glyph glyph-name="W" unicode="W" horiz-adv-x="505" 
d="M55 0l42 690h41l-45 -647l197 647h58l-19 -647l172 647h39l-190 -690h-58l20 648l-198 -648h-59z" />
    <glyph glyph-name="X" unicode="X" horiz-adv-x="336" 
d="M211 0l-45 324l-156 -324h-42l174 356l-46 334h40l40 -309l152 309h40l-168 -337l51 -353h-40z" />
    <glyph glyph-name="Y" unicode="Y" horiz-adv-x="317" 
d="M76 0l42 237l-43 453h38l37 -390l173 390h39l-204 -453l-42 -237h-40z" />
    <glyph glyph-name="Z" unicode="Z" horiz-adv-x="305" 
d="M-25 0l5 29l300 626h-185l7 35h228l-5 -28l-300 -627h193l-6 -35h-237z" />
    <glyph glyph-name="bracketleft" unicode="[" horiz-adv-x="195" 
d="M-6 -51l139 791h112l-6 -35h-72l-127 -721h72l-6 -35h-112z" />
    <glyph glyph-name="backslash" unicode="\" horiz-adv-x="205" 
d="M125 -61h-38l-3 811h38z" />
    <glyph glyph-name="bracketright" unicode="]" horiz-adv-x="195" 
d="M204 740l-139 -791h-112l6 35h72l127 721h-72l6 35h112z" />
    <glyph glyph-name="asciicircum" unicode="^" horiz-adv-x="316" 
d="M20 366l166 324h58l57 -324h-37l-52 299l-150 -299h-42z" />
    <glyph glyph-name="underscore" unicode="_" horiz-adv-x="290" 
d="M-75 -72l5 27h297l-4 -27h-298z" />
    <glyph glyph-name="grave" unicode="`" horiz-adv-x="294" 
d="M177 531l-72 72l4 22h23l72 -72l-4 -22h-23z" />
    <glyph glyph-name="a" unicode="a" 
d="M211 0l-23 23l8 53l-76 -76h-57l-59 59l65 366l59 59h75l53 -54l13 54h33l-78 -444l9 -9h33l-5 -31h-50zM83 33h28l88 88l48 273l-56 57h-44l-42 -42l-60 -338z" />
    <glyph glyph-name="b" unicode="b" horiz-adv-x="332" 
d="M-8 0l122 690h39l-49 -275l69 69h60l59 -59l-65 -366l-59 -59h-73l-57 57l-12 -57h-34zM182 451l-87 -87l-48 -272l59 -59h43l42 42l60 338l-38 38h-31z" />
    <glyph glyph-name="c" unicode="c" horiz-adv-x="308" 
d="M63 0l-59 59l65 366l59 59h99l59 -59l-16 -92h-39l14 80l-38 38h-60l-42 -42l-60 -338l38 -38h60l42 42l13 76h39l-16 -92l-59 -59h-99z" />
    <glyph glyph-name="d" unicode="d" 
d="M211 0l-23 23l8 53l-76 -76h-57l-59 59l65 366l59 59h75l51 -52l46 258h39l-115 -650l9 -9h33l-5 -31h-50zM83 33h28l88 88l48 273l-56 57h-44l-42 -42l-60 -338z" />
    <glyph glyph-name="e" unicode="e" horiz-adv-x="323" 
d="M63 0l-59 59l65 366l59 59h101l59 -59l-34 -190h-180l-29 -164l38 -38h62l42 42l11 64h39l-14 -80l-59 -59h-101zM105 409l-25 -141h141l26 145l-38 38h-62z" />
    <glyph glyph-name="f" unicode="f" horiz-adv-x="221" 
d="M30 451l6 33h60l26 146l60 60h109l-6 -33h-84l-43 -43l-23 -130h102l-7 -33h-101l-80 -451h-39l80 451h-60z" />
    <glyph glyph-name="g" unicode="g" 
d="M30 -170l-54 54l12 65h39l-10 -53l33 -33h73l42 42l35 198l-75 -75h-57l-59 59l60 338l59 59h79l53 -54l13 54h33l-105 -595l-59 -59h-112zM88 61h28l93 93l42 240l-56 57h-48l-42 -42l-55 -310z" />
    <glyph glyph-name="h" unicode="h" horiz-adv-x="334" 
d="M-8 0l122 690h39l-49 -275l69 69h54l59 -59l-68 -385l9 -9h33l-5 -31h-50l-28 28l68 385l-40 40h-21l-89 -89l-64 -364h-39z" />
    <glyph glyph-name="i" unicode="i" horiz-adv-x="173" 
d="M33 0l-28 28l80 456h39l-78 -444l9 -9h33l-5 -31h-50zM102 576l17 98h39l-17 -98h-39z" />
    <glyph glyph-name="j" unicode="j" horiz-adv-x="163" 
d="M-127 -170l6 33h63l42 42l101 579h39l-104 -595l-59 -59h-88zM102 576l17 98h39l-17 -98h-39z" />
    <glyph glyph-name="k" unicode="k" horiz-adv-x="315" 
d="M-8 0l122 690h39l-87 -489l200 283h44l-133 -185l63 -299h-39l-53 260l-93 -125l-24 -135h-39z" />
    <glyph glyph-name="l" unicode="l" horiz-adv-x="173" 
d="M33 0l-28 28l117 662h39l-115 -650l9 -9h33l-5 -31h-50z" />
    <glyph glyph-name="m" unicode="m" horiz-adv-x="500" 
d="M-8 0l86 484h33l-10 -67l67 67h52l54 -54l54 54h65l59 -59l-68 -385l9 -9h33l-5 -31h-50l-28 28l68 385l-40 40h-30l-70 -70l-67 -383h-39l73 414l-40 39h-17l-86 -86l-64 -367h-39z" />
    <glyph glyph-name="n" unicode="n" horiz-adv-x="334" 
d="M-8 0l86 484h33l-10 -67l67 67h59l59 -59l-68 -385l9 -9h33l-5 -31h-50l-28 28l68 385l-40 40h-24l-86 -86l-64 -367h-39z" />
    <glyph glyph-name="o" unicode="o" 
d="M63 0l-59 59l65 366l59 59h111l59 -59l-65 -366l-59 -59h-111zM83 33h72l42 42l60 338l-38 38h-72l-42 -42l-60 -338z" />
    <glyph glyph-name="p" unicode="p" horiz-adv-x="331" 
d="M-38 -170l116 654h33l-10 -67l67 67h64l59 -59l-65 -366l-59 -59h-73l-54 53l-39 -223h-39zM178 451l-82 -82l-49 -277l60 -59h41l42 42l60 338l-38 38h-34z" />
    <glyph glyph-name="q" unicode="q" horiz-adv-x="332" 
d="M148 -170l42 240l-70 -70h-57l-59 59l65 366l59 59h75l53 -54l13 54h33l-115 -654h-39zM83 33h28l88 88l48 273l-56 57h-44l-42 -42l-60 -338z" />
    <glyph glyph-name="r" unicode="r" horiz-adv-x="230" 
d="M-8 0l86 484h33l-10 -67l67 67h70l-6 -35h-55l-81 -81l-65 -368h-39z" />
    <glyph glyph-name="s" unicode="s" horiz-adv-x="312" 
d="M55 0l-60 60l14 79h39l-12 -67l39 -39h63l42 42l21 117l-24 24l-95 25l-45 45l25 139l59 59h97l59 -59l-14 -80h-39l12 68l-38 38h-58l-42 -42l-20 -111l24 -24l96 -26l44 -44l-26 -145l-59 -59h-102z" />
    <glyph glyph-name="t" unicode="t" horiz-adv-x="255" 
d="M34 451l6 33h57l26 149h39l-26 -149h119l-6 -33h-119l-67 -380l38 -38h78l-6 -33h-92l-59 59l69 392h-57z" />
    <glyph glyph-name="u" unicode="u" horiz-adv-x="326" 
d="M198 0l-23 23l7 48l-71 -71h-50l-59 59l75 425h39l-73 -413l40 -40h17l85 85l66 368h38l-78 -444l9 -9h33l-5 -31h-50z" />
    <glyph glyph-name="v" unicode="v" horiz-adv-x="291" 
d="M50 0l-5 484h40l1 -458l166 458h39l-177 -484h-64z" />
    <glyph glyph-name="w" unicode="w" horiz-adv-x="464" 
d="M42 0l10 484h39l-13 -456l149 456h57l2 -456l135 456h36l-146 -484h-58l-2 451l-149 -451h-60z" />
    <glyph glyph-name="x" unicode="x" horiz-adv-x="297" 
d="M177 0l-50 222l-130 -222h-42l146 247l-52 237h38l46 -213l124 213h40l-139 -235l58 -249h-39z" />
    <glyph glyph-name="y" unicode="y" horiz-adv-x="291" 
d="M50 0l-5 484h40l1 -459l166 459h39l-216 -591l-63 -63h-86l6 33h61l52 52l31 85h-26z" />
    <glyph glyph-name="z" unicode="z" horiz-adv-x="252" 
d="M-42 0l5 29l244 422h-166l6 33h209l-5 -28l-244 -423h169l-6 -33h-212z" />
    <glyph glyph-name="braceleft" unicode="{" horiz-adv-x="211" 
d="M86 -51l-64 64l52 293l-31 31h-41l7 36h40l45 45l45 256l66 66h57l-6 -35h-31l-49 -49l-44 -246l-56 -56l39 -39l-51 -289l42 -42h23l-6 -35h-37z" />
    <glyph glyph-name="bar" unicode="|" horiz-adv-x="206" 
d="M11 -61l144 811h39l-144 -811h-39z" />
    <glyph glyph-name="braceright" unicode="}" horiz-adv-x="211" 
d="M129 740l64 -64l-48 -273l31 -31h41l-7 -36h-40l-45 -45l-49 -276l-66 -66h-57l6 35h31l49 49l48 266l56 56l-39 39l47 269l-42 42h-23l6 35h37z" />
    <glyph glyph-name="asciitilde" unicode="~" horiz-adv-x="342" 
d="M62 573l11 62l55 55h59l85 -85h22l36 36l9 49h38l-11 -62l-55 -55h-59l-85 85h-22l-36 -36l-9 -49h-38z" />
    <glyph glyph-name="exclamdown" unicode="&#xa1;" horiz-adv-x="172" 
d="M135 511l-90 -511h-40l90 511h40zM167 690l-19 -108h-40l19 108h40z" />
    <glyph glyph-name="cent" unicode="&#xa2;" horiz-adv-x="316" 
d="M73 70l-68 68l73 416l68 68h44l16 87h35l-16 -87h28l68 -68l-20 -111h-39l17 98l-46 46h-67l-51 -51l-68 -385l46 -46h66l51 51l17 96h40l-20 -114l-68 -68h-46l-16 -90h-35l16 90h-25z" />
    <glyph glyph-name="sterling" unicode="&#xa3;" horiz-adv-x="342" 
d="M27 325l6 34h48l47 263l68 68h98l68 -68l-22 -123h-40l20 110l-46 46h-58l-51 -51l-44 -245h119l-6 -34h-119l-44 -249l-41 -41h225l-6 -35h-274l6 35l52 52l42 238h-48z" />
    <glyph glyph-name="yen" unicode="&#xa5;" horiz-adv-x="317" 
d="M10 233l6 32h99l-40 425h38l37 -393l174 393h38l-192 -425h99l-5 -32h-107l-12 -69h106l-5 -32h-107l-23 -132h-40l23 132h-106l6 32h106l12 69h-107z" />
    <glyph glyph-name="section" unicode="&#xa7;" horiz-adv-x="345" 
d="M44 -95l-64 64l25 138h39l-22 -125l42 -42h78l51 51l40 229h-189l-14 14l4 20h245l-49 -281l-68 -68h-118zM51 348l48 274l68 68h110l66 -66l-24 -136h-40l22 123l-44 44h-70l-51 -51l-40 -222h189l14 -14l-4 -20h-244z" />
    <glyph glyph-name="dieresis" unicode="&#xa8;" horiz-adv-x="294" 
d="M100 540l12 74h37l-12 -74h-37zM205 540l12 74h37l-12 -74h-37z" />
    <glyph glyph-name="copyright" unicode="&#xa9;" horiz-adv-x="537" 
d="M191 119l-44 44l65 367l44 44h88l44 -44l-17 -99h-39l15 87l-23 23h-49l-26 -26l-61 -340l23 -23h49l26 26l16 84h39l-18 -99l-44 -44h-88zM83 0l-68 68l98 554l68 68h273l68 -68l-98 -554l-68 -68h-273zM103 35h233l51 51l93 523l-46 46h-233l-51 -51l-93 -523z" />
    <glyph glyph-name="ordfeminine" unicode="&#xaa;" horiz-adv-x="277" 
d="M234 345l-27 27l4 23l-50 -50h-56l-55 55l42 236l54 54h73l37 -38l9 38h31l-54 -301l11 -11h16l-6 -33h-29zM120 378h35l57 57l33 188l-33 34h-52l-32 -32l-38 -217z" />
    <glyph glyph-name="guillemotleft" unicode="&#xab;" horiz-adv-x="261" 
d="M82 154l-58 196l126 197h41l-128 -199l58 -194h-39zM172 154l-58 196l126 197h41l-128 -199l58 -194h-39z" />
    <glyph glyph-name="registered" unicode="&#xae;" horiz-adv-x="349" 
d="M109 300l-59 59l49 274l57 57h139l59 -59l-49 -274l-57 -57h-139zM122 324h113l45 45l45 254l-43 43h-113l-45 -45l-45 -254zM123 370l44 250h76l33 -33l-14 -79l-32 -32l11 -83h14l-4 -23h-34l-13 103h-36l-18 -103h-27zM191 598l-19 -102h43l21 21l12 62l-19 19h-38z
" />
    <glyph glyph-name="macron" unicode="&#xaf;" horiz-adv-x="294" 
d="M93 562l5 31h161l-5 -31h-161z" />
    <glyph glyph-name="degree" unicode="&#xb0;" horiz-adv-x="217" 
d="M104 496l-44 44l19 106l44 44h74l44 -44l-19 -106l-44 -44h-74zM120 522h45l27 27l15 88l-27 27h-45l-27 -27l-15 -88z" />
    <glyph glyph-name="twosuperior" unicode="&#xb2;" horiz-adv-x="252" 
d="M37 354l23 129l43 43h94l25 25l14 78l-32 32h-49l-33 -33l-8 -42h-36l10 54l50 50h85l50 -50l-18 -102l-41 -41h-94l-26 -26l-15 -87h144l-5 -30h-181z" />
    <glyph glyph-name="threesuperior" unicode="&#xb3;" horiz-adv-x="268" 
d="M94 354l-50 50l10 54h35l-8 -43l31 -31h59l32 32l12 71l-23 23h-74l5 30h74l34 34l10 55l-31 31h-59l-32 -32l-8 -44h-36l10 56l50 50h93l50 -50l-12 -72l-43 -43l30 -30l-16 -91l-50 -50h-93z" />
    <glyph glyph-name="acute" unicode="&#xb4;" horiz-adv-x="294" 
d="M143 531l4 22l72 72h29l-4 -22l-72 -72h-29z" />
    <glyph glyph-name="paragraph" unicode="&#xb6;" horiz-adv-x="460" 
d="M158 -96l6 35h78l51 51l118 665h-80l-101 -573h-141l-68 68l84 472l68 68h284l-127 -718l-68 -68h-104zM109 117h87l96 538h-99l-51 -51l-79 -441z" />
    <glyph glyph-name="periodcentered" unicode="&#xb7;" horiz-adv-x="170" 
d="M50 311l16 92h56l-16 -92h-56z" />
    <glyph glyph-name="cedilla" unicode="&#xb8;" horiz-adv-x="294" 
d="M22 -147l5 27h70l11 11l5 28l-11 11h-36l-4 4l12 66h31l-8 -43h28l25 -25l-9 -54l-25 -25h-94z" />
    <glyph glyph-name="onesuperior" unicode="&#xb9;" horiz-adv-x="222" 
d="M30 354l5 30h67l48 276h-66l5 30h102l-54 -306h65l-6 -30h-166z" />
    <glyph glyph-name="ordmasculine" unicode="&#xba;" horiz-adv-x="277" 
d="M105 345l-55 55l42 236l54 54h86l55 -55l-42 -236l-54 -54h-86zM120 378h57l32 32l38 217l-30 30h-57l-32 -32l-38 -217z" />
    <glyph glyph-name="guillemotright" unicode="&#xbb;" horiz-adv-x="261" 
d="M94 547l58 -196l-126 -197h-41l128 199l-58 194h39zM184 547l58 -196l-126 -197h-41l128 199l-58 194h39z" />
    <glyph glyph-name="onequarter" unicode="&#xbc;" horiz-adv-x="529" 
d="M236 84l4 23l103 229h37l-99 -221h114l40 221h35l-39 -221h36l-5 -31h-37l-14 -84h-36l15 84h-154zM41 0l394 690h37l-394 -690h-37zM30 354l5 30h67l48 276h-66l5 30h102l-54 -306h65l-6 -30h-166z" />
    <glyph glyph-name="onehalf" unicode="&#xbd;" horiz-adv-x="514" 
d="M30 354l5 30h67l48 276h-66l5 30h102l-54 -306h65l-6 -30h-166zM41 0l394 690h37l-394 -690h-37zM239 0l23 129l43 43h94l25 25l14 78l-32 32h-49l-33 -33l-8 -42h-36l10 54l50 50h85l50 -50l-18 -102l-41 -41h-94l-26 -26l-15 -87h144l-5 -30h-181z" />
    <glyph glyph-name="threequarters" unicode="&#xbe;" horiz-adv-x="550" 
d="M94 354l-50 50l10 54h35l-8 -43l31 -31h59l32 32l12 71l-23 23h-74l5 30h74l34 34l10 55l-31 31h-59l-32 -32l-8 -44h-36l10 56l50 50h93l50 -50l-12 -72l-43 -43l30 -30l-16 -91l-50 -50h-93zM257 84l4 23l103 229h37l-99 -221h114l40 221h35l-39 -221h36l-5 -31h-37
l-14 -84h-36l15 84h-154zM62 0l394 690h37l-394 -690h-37z" />
    <glyph glyph-name="questiondown" unicode="&#xbf;" horiz-adv-x="319" 
d="M224 511l-25 -143l-48 -48h-51l-31 -31l-37 -208l46 -46h76l51 51l14 80h40l-17 -98l-68 -68h-116l-68 68l42 239l48 48h51l31 31l22 125h40zM256 690l-19 -108h-40l19 108h40z" />
    <glyph glyph-name="Agrave" unicode="&#xc0;" horiz-adv-x="331" 
d="M-44 0l237 690h62l-5 -690h-39l3 218h-144l-73 -218h-41zM220 661l-138 -407h132zM246 736l-72 72l4 22h23l72 -72l-4 -22h-23z" />
    <glyph glyph-name="Aacute" unicode="&#xc1;" horiz-adv-x="331" 
d="M-44 0l237 690h62l-5 -690h-39l3 218h-144l-73 -218h-41zM220 661l-138 -407h132zM200 736l4 22l72 72h29l-4 -22l-72 -72h-29z" />
    <glyph glyph-name="Acircumflex" unicode="&#xc2;" horiz-adv-x="331" 
d="M-44 0l237 690h62l-5 -690h-39l3 218h-144l-73 -218h-41zM220 661l-138 -407h132zM148 743l3 20l62 62h51l62 -62l-4 -20h-21l-60 60h-5l-60 -60h-28z" />
    <glyph glyph-name="Atilde" unicode="&#xc3;" horiz-adv-x="331" 
d="M-44 0l237 690h62l-5 -690h-39l3 218h-144l-73 -218h-41zM220 661l-138 -407h132zM142 748l7 34l35 35h45l42 -42h14l18 18l5 24h34l-7 -34l-35 -35h-45l-42 42h-14l-18 -18l-5 -24h-34z" />
    <glyph glyph-name="Adieresis" unicode="&#xc4;" horiz-adv-x="331" 
d="M-44 0l237 690h62l-5 -690h-39l3 218h-144l-73 -218h-41zM220 661l-138 -407h132zM165 745l12 74h37l-12 -74h-37zM270 745l12 74h37l-12 -74h-37z" />
    <glyph glyph-name="Aring" unicode="&#xc5;" horiz-adv-x="331" 
d="M-44 0l237 690h62l-5 -690h-39l3 218h-144l-73 -218h-41zM220 661l-138 -407h132zM211 725l-30 30l9 55l30 30h54l30 -30l-9 -55l-30 -30h-54zM225 747h28l16 16l7 40l-16 16h-28l-16 -16l-7 -40z" />
    <glyph glyph-name="AE" unicode="&#xc6;" horiz-adv-x="471" 
d="M2 0h-42l237 690h291l-6 -35h-220l-2 -291h160l-6 -35h-155l-2 -294h119l-6 -35h-154l3 218h-144zM219 254l6 407l-138 -407h132z" />
    <glyph glyph-name="Ccedilla" unicode="&#xc7;" horiz-adv-x="350" 
d="M77 0l-68 68l98 554l68 68h107l68 -68l-20 -111h-40l18 98l-46 46h-67l-51 -51l-93 -523l46 -46h67l51 51l17 97h40l-20 -115l-68 -68h-48l-8 -43h28l25 -25l-9 -54l-25 -25h-94l5 27h70l11 11l5 28l-11 11h-36l-4 4l12 66h-28z" />
    <glyph glyph-name="Egrave" unicode="&#xc8;" horiz-adv-x="320" 
d="M3 0l122 690h212l-6 -35h-172l-52 -291h162l-6 -35h-162l-52 -294h176l-6 -35h-216zM248 736l-72 72l4 22h23l72 -72l-4 -22h-23z" />
    <glyph glyph-name="Eacute" unicode="&#xc9;" horiz-adv-x="320" 
d="M3 0l122 690h212l-6 -35h-172l-52 -291h162l-6 -35h-162l-52 -294h176l-6 -35h-216zM202 736l4 22l72 72h29l-4 -22l-72 -72h-29z" />
    <glyph glyph-name="Ecircumflex" unicode="&#xca;" horiz-adv-x="320" 
d="M3 0l122 690h212l-6 -35h-172l-52 -291h162l-6 -35h-162l-52 -294h176l-6 -35h-216zM150 743l3 20l62 62h51l62 -62l-4 -20h-21l-60 60h-5l-60 -60h-28z" />
    <glyph glyph-name="Edieresis" unicode="&#xcb;" horiz-adv-x="320" 
d="M3 0l122 690h212l-6 -35h-172l-52 -291h162l-6 -35h-162l-52 -294h176l-6 -35h-216zM167 745l12 74h37l-12 -74h-37zM272 745l12 74h37l-12 -74h-37z" />
    <glyph glyph-name="Igrave" unicode="&#xcc;" horiz-adv-x="250" 
d="M88 657l6 33h184l-6 -33h-73l-110 -624h73l-6 -33h-184l6 33h71l110 624h-71zM206 736l-72 72l4 22h23l72 -72l-4 -22h-23z" />
    <glyph glyph-name="Iacute" unicode="&#xcd;" horiz-adv-x="250" 
d="M88 657l6 33h184l-6 -33h-73l-110 -624h73l-6 -33h-184l6 33h71l110 624h-71zM160 736l4 22l72 72h29l-4 -22l-72 -72h-29z" />
    <glyph glyph-name="Icircumflex" unicode="&#xce;" horiz-adv-x="250" 
d="M88 657l6 33h184l-6 -33h-73l-110 -624h73l-6 -33h-184l6 33h71l110 624h-71zM108 743l3 20l62 62h51l62 -62l-4 -20h-21l-60 60h-5l-60 -60h-28z" />
    <glyph glyph-name="Idieresis" unicode="&#xcf;" horiz-adv-x="250" 
d="M88 657l6 33h184l-6 -33h-73l-110 -624h73l-6 -33h-184l6 33h71l110 624h-71zM125 745l12 74h37l-12 -74h-37zM230 745l12 74h37l-12 -74h-37z" />
    <glyph glyph-name="Eth" unicode="&#xd0;" horiz-adv-x="374" 
d="M8 335l6 34h54l57 321h172l68 -68l-98 -554l-68 -68h-196l59 335h-54zM49 35h130l51 51l93 523l-46 46h-118l-51 -286h91l-6 -34h-91z" />
    <glyph glyph-name="Ntilde" unicode="&#xd1;" horiz-adv-x="388" 
d="M3 0l122 690h42l75 -593l105 593h38l-122 -690h-42l-75 596l-105 -596h-38zM171 748l7 34l35 35h45l42 -42h14l18 18l5 24h34l-7 -34l-35 -35h-45l-42 42h-14l-18 -18l-5 -24h-34z" />
    <glyph glyph-name="Ograve" unicode="&#xd2;" horiz-adv-x="372" 
d="M77 0l-68 68l98 554l68 68h120l68 -68l-98 -554l-68 -68h-120zM97 35h80l51 51l93 523l-46 46h-80l-51 -51l-93 -523zM255 736l-72 72l4 22h23l72 -72l-4 -22h-23z" />
    <glyph glyph-name="Oacute" unicode="&#xd3;" horiz-adv-x="372" 
d="M77 0l-68 68l98 554l68 68h120l68 -68l-98 -554l-68 -68h-120zM97 35h80l51 51l93 523l-46 46h-80l-51 -51l-93 -523zM209 736l4 22l72 72h29l-4 -22l-72 -72h-29z" />
    <glyph glyph-name="Ocircumflex" unicode="&#xd4;" horiz-adv-x="372" 
d="M77 0l-68 68l98 554l68 68h120l68 -68l-98 -554l-68 -68h-120zM97 35h80l51 51l93 523l-46 46h-80l-51 -51l-93 -523zM157 743l3 20l62 62h51l62 -62l-4 -20h-21l-60 60h-5l-60 -60h-28z" />
    <glyph glyph-name="Otilde" unicode="&#xd5;" horiz-adv-x="372" 
d="M77 0l-68 68l98 554l68 68h120l68 -68l-98 -554l-68 -68h-120zM97 35h80l51 51l93 523l-46 46h-80l-51 -51l-93 -523zM151 748l7 34l35 35h45l42 -42h14l18 18l5 24h34l-7 -34l-35 -35h-45l-42 42h-14l-18 -18l-5 -24h-34z" />
    <glyph glyph-name="Odieresis" unicode="&#xd6;" horiz-adv-x="372" 
d="M77 0l-68 68l98 554l68 68h120l68 -68l-98 -554l-68 -68h-120zM97 35h80l51 51l93 523l-46 46h-80l-51 -51l-93 -523zM174 745l12 74h37l-12 -74h-37zM279 745l12 74h37l-12 -74h-37z" />
    <glyph glyph-name="multiply" unicode="&#xd7;" horiz-adv-x="341" 
d="M68 215l-24 24l104 104l-104 105l24 24l104 -105l105 105l24 -24l-105 -105l105 -104l-24 -24l-105 104z" />
    <glyph glyph-name="Oslash" unicode="&#xd8;" horiz-adv-x="372" 
d="M77 0l-68 68l98 554l68 68h120l68 -68l-98 -554l-68 -68h-120zM95 35h82l51 51l93 525l-10 10l-226 -576zM61 69l226 576l-10 10h-82l-51 -51l-93 -525z" />
    <glyph glyph-name="Ugrave" unicode="&#xd9;" horiz-adv-x="366" 
d="M80 0l-68 68l110 622h40l-108 -609l46 -46h71l51 51l107 604h40l-110 -622l-68 -68h-111zM263 736l-72 72l4 22h23l72 -72l-4 -22h-23z" />
    <glyph glyph-name="Uacute" unicode="&#xda;" horiz-adv-x="366" 
d="M80 0l-68 68l110 622h40l-108 -609l46 -46h71l51 51l107 604h40l-110 -622l-68 -68h-111zM217 736l4 22l72 72h29l-4 -22l-72 -72h-29z" />
    <glyph glyph-name="Ucircumflex" unicode="&#xdb;" horiz-adv-x="366" 
d="M80 0l-68 68l110 622h40l-108 -609l46 -46h71l51 51l107 604h40l-110 -622l-68 -68h-111zM165 743l3 20l62 62h51l62 -62l-4 -20h-21l-60 60h-5l-60 -60h-28z" />
    <glyph glyph-name="Udieresis" unicode="&#xdc;" horiz-adv-x="366" 
d="M80 0l-68 68l110 622h40l-108 -609l46 -46h71l51 51l107 604h40l-110 -622l-68 -68h-111zM182 745l12 74h37l-12 -74h-37zM287 745l12 74h37l-12 -74h-37z" />
    <glyph glyph-name="Yacute" unicode="&#xdd;" horiz-adv-x="317" 
d="M76 0l42 237l-43 453h38l37 -390l173 390h39l-204 -453l-42 -237h-40zM192 736l4 22l72 72h29l-4 -22l-72 -72h-29z" />
    <glyph glyph-name="Thorn" unicode="&#xde;" horiz-adv-x="352" 
d="M3 0l122 690h40l-24 -132h125l68 -68l-48 -266l-68 -68h-148l-27 -156h-40zM246 523h-111l-59 -332h122l51 51l43 235z" />
    <glyph glyph-name="germandbls" unicode="&#xdf;" horiz-adv-x="353" 
d="M-8 0l112 631l59 59h131l59 -59l-34 -195l-69 -69l49 -49l-46 -259l-59 -59h-112l6 33h87l42 42l41 231l-45 45h-69l6 33h67l66 66l29 169l-38 38h-92l-42 -42l-109 -615h-39z" />
    <glyph glyph-name="agrave" unicode="&#xe0;" 
d="M211 0l-23 23l8 53l-76 -76h-57l-59 59l65 366l59 59h75l53 -54l13 54h33l-78 -444l9 -9h33l-5 -31h-50zM83 33h28l88 88l48 273l-56 57h-44l-42 -42l-60 -338zM212 531l-72 72l4 22h23l72 -72l-4 -22h-23z" />
    <glyph glyph-name="aacute" unicode="&#xe1;" 
d="M211 0l-23 23l8 53l-76 -76h-57l-59 59l65 366l59 59h75l53 -54l13 54h33l-78 -444l9 -9h33l-5 -31h-50zM83 33h28l88 88l48 273l-56 57h-44l-42 -42l-60 -338zM166 531l4 22l72 72h29l-4 -22l-72 -72h-29z" />
    <glyph glyph-name="acircumflex" unicode="&#xe2;" 
d="M211 0l-23 23l8 53l-76 -76h-57l-59 59l65 366l59 59h75l53 -54l13 54h33l-78 -444l9 -9h33l-5 -31h-50zM83 33h28l88 88l48 273l-56 57h-44l-42 -42l-60 -338zM114 538l3 20l62 62h51l62 -62l-4 -20h-21l-60 60h-5l-60 -60h-28z" />
    <glyph glyph-name="atilde" unicode="&#xe3;" 
d="M211 0l-23 23l8 53l-76 -76h-57l-59 59l65 366l59 59h75l53 -54l13 54h33l-78 -444l9 -9h33l-5 -31h-50zM83 33h28l88 88l48 273l-56 57h-44l-42 -42l-60 -338zM108 543l7 34l35 35h45l42 -42h14l18 18l5 24h34l-7 -34l-35 -35h-45l-42 42h-14l-18 -18l-5 -24h-34z" />
    <glyph glyph-name="adieresis" unicode="&#xe4;" 
d="M211 0l-23 23l8 53l-76 -76h-57l-59 59l65 366l59 59h75l53 -54l13 54h33l-78 -444l9 -9h33l-5 -31h-50zM83 33h28l88 88l48 273l-56 57h-44l-42 -42l-60 -338zM131 540l12 74h37l-12 -74h-37zM236 540l12 74h37l-12 -74h-37z" />
    <glyph glyph-name="aring" unicode="&#xe5;" 
d="M211 0l-23 23l8 53l-76 -76h-57l-59 59l65 366l59 59h75l53 -54l13 54h33l-78 -444l9 -9h33l-5 -31h-50zM83 33h28l88 88l48 273l-56 57h-44l-42 -42l-60 -338zM177 520l-30 30l9 55l30 30h54l30 -30l-9 -55l-30 -30h-54zM191 542h28l16 16l7 40l-16 16h-28l-16 -16
l-7 -40z" />
    <glyph glyph-name="ae" unicode="&#xe6;" horiz-adv-x="504" 
d="M54 0l-59 59l27 150l59 59h141l26 145l-38 38h-63l-42 -42l-11 -63h-39l14 79l59 59h100l41 -42l42 42h99l59 -59l-34 -190h-180l-29 -164l38 -38h62l42 42l11 64h39l-14 -80l-59 -59h-99l-42 41l-41 -41h-109zM146 33l42 42l28 160h-116l-42 -42l-22 -122l38 -38h72z
M286 409l-25 -141h141l26 145l-38 38h-62z" />
    <glyph glyph-name="ccedilla" unicode="&#xe7;" horiz-adv-x="308" 
d="M63 0l-59 59l65 366l59 59h99l59 -59l-16 -92h-39l14 80l-38 38h-60l-42 -42l-60 -338l38 -38h60l42 42l13 76h39l-16 -92l-59 -59h-41l-8 -43h28l25 -25l-9 -54l-25 -25h-94l5 27h70l11 11l5 28l-11 11h-36l-4 4l12 66h-27z" />
    <glyph glyph-name="egrave" unicode="&#xe8;" horiz-adv-x="323" 
d="M63 0l-59 59l65 366l59 59h101l59 -59l-34 -190h-180l-29 -164l38 -38h62l42 42l11 64h39l-14 -80l-59 -59h-101zM105 409l-25 -141h141l26 145l-38 38h-62zM204 531l-72 72l4 22h23l72 -72l-4 -22h-23z" />
    <glyph glyph-name="eacute" unicode="&#xe9;" horiz-adv-x="323" 
d="M63 0l-59 59l65 366l59 59h101l59 -59l-34 -190h-180l-29 -164l38 -38h62l42 42l11 64h39l-14 -80l-59 -59h-101zM105 409l-25 -141h141l26 145l-38 38h-62zM158 531l4 22l72 72h29l-4 -22l-72 -72h-29z" />
    <glyph glyph-name="ecircumflex" unicode="&#xea;" horiz-adv-x="323" 
d="M63 0l-59 59l65 366l59 59h101l59 -59l-34 -190h-180l-29 -164l38 -38h62l42 42l11 64h39l-14 -80l-59 -59h-101zM105 409l-25 -141h141l26 145l-38 38h-62zM106 538l3 20l62 62h51l62 -62l-4 -20h-21l-60 60h-5l-60 -60h-28z" />
    <glyph glyph-name="edieresis" unicode="&#xeb;" horiz-adv-x="323" 
d="M63 0l-59 59l65 366l59 59h101l59 -59l-34 -190h-180l-29 -164l38 -38h62l42 42l11 64h39l-14 -80l-59 -59h-101zM105 409l-25 -141h141l26 145l-38 38h-62zM123 540l12 74h37l-12 -74h-37zM228 540l12 74h37l-12 -74h-37z" />
    <glyph glyph-name="igrave" unicode="&#xec;" horiz-adv-x="173" 
d="M33 0l-28 28l80 456h39l-78 -444l9 -9h33l-5 -31h-50zM125 531l-72 72l4 22h23l72 -72l-4 -22h-23z" />
    <glyph glyph-name="iacute" unicode="&#xed;" horiz-adv-x="173" 
d="M33 0l-28 28l80 456h39l-78 -444l9 -9h33l-5 -31h-50zM79 531l4 22l72 72h29l-4 -22l-72 -72h-29z" />
    <glyph glyph-name="icircumflex" unicode="&#xee;" horiz-adv-x="173" 
d="M33 0l-28 28l80 456h39l-78 -444l9 -9h33l-5 -31h-50zM27 538l3 20l62 62h51l62 -62l-4 -20h-21l-60 60h-5l-60 -60h-28z" />
    <glyph glyph-name="idieresis" unicode="&#xef;" horiz-adv-x="173" 
d="M33 0l-28 28l80 456h39l-78 -444l9 -9h33l-5 -31h-50zM149 540l12 74h37l-12 -74h-37zM44 540l12 74h37l-12 -74h-37z" />
    <glyph glyph-name="eth" unicode="&#xf0;" 
d="M63 0l-59 59l65 366l59 59h81l51 -51l20 114l-118 118l5 25h22l118 -118l62 62h11l-8 -43l-54 -54l-85 -478l-59 -59h-111zM155 33l42 42l56 320l-56 56h-50l-42 -42l-60 -338l38 -38h72z" />
    <glyph glyph-name="ntilde" unicode="&#xf1;" horiz-adv-x="334" 
d="M-8 0l86 484h33l-10 -67l67 67h59l59 -59l-68 -385l9 -9h33l-5 -31h-50l-28 28l68 385l-40 40h-24l-86 -86l-64 -367h-39zM103 543l7 34l35 35h45l42 -42h14l18 18l5 24h34l-7 -34l-35 -35h-45l-42 42h-14l-18 -18l-5 -24h-34z" />
    <glyph glyph-name="ograve" unicode="&#xf2;" 
d="M63 0l-59 59l65 366l59 59h111l59 -59l-65 -366l-59 -59h-111zM83 33h72l42 42l60 338l-38 38h-72l-42 -42l-60 -338zM204 531l-72 72l4 22h23l72 -72l-4 -22h-23z" />
    <glyph glyph-name="oacute" unicode="&#xf3;" 
d="M63 0l-59 59l65 366l59 59h111l59 -59l-65 -366l-59 -59h-111zM83 33h72l42 42l60 338l-38 38h-72l-42 -42l-60 -338zM158 531l4 22l72 72h29l-4 -22l-72 -72h-29z" />
    <glyph glyph-name="ocircumflex" unicode="&#xf4;" 
d="M63 0l-59 59l65 366l59 59h111l59 -59l-65 -366l-59 -59h-111zM83 33h72l42 42l60 338l-38 38h-72l-42 -42l-60 -338zM106 538l3 20l62 62h51l62 -62l-4 -20h-21l-60 60h-5l-60 -60h-28z" />
    <glyph glyph-name="otilde" unicode="&#xf5;" 
d="M63 0l-59 59l65 366l59 59h111l59 -59l-65 -366l-59 -59h-111zM83 33h72l42 42l60 338l-38 38h-72l-42 -42l-60 -338zM100 543l7 34l35 35h45l42 -42h14l18 18l5 24h34l-7 -34l-35 -35h-45l-42 42h-14l-18 -18l-5 -24h-34z" />
    <glyph glyph-name="odieresis" unicode="&#xf6;" 
d="M63 0l-59 59l65 366l59 59h111l59 -59l-65 -366l-59 -59h-111zM83 33h72l42 42l60 338l-38 38h-72l-42 -42l-60 -338zM123 540l12 74h37l-12 -74h-37zM228 540l12 74h37l-12 -74h-37z" />
    <glyph glyph-name="divide" unicode="&#xf7;" horiz-adv-x="335" 
d="M120 183l13 71h41l-13 -71h-41zM37 326l7 36h258l-7 -36h-258zM164 432l13 71h41l-13 -71h-41z" />
    <glyph glyph-name="oslash" unicode="&#xf8;" 
d="M63 0l-59 59l65 366l59 59h111l59 -59l-65 -366l-59 -59h-111zM81 33h74l42 42l60 340l-8 8l-176 -382zM53 61l176 382l-8 8h-74l-42 -42l-60 -340z" />
    <glyph glyph-name="ugrave" unicode="&#xf9;" horiz-adv-x="326" 
d="M198 0l-23 23l7 48l-71 -71h-50l-59 59l75 425h39l-73 -413l40 -40h17l85 85l66 368h38l-78 -444l9 -9h33l-5 -31h-50zM203 531l-72 72l4 22h23l72 -72l-4 -22h-23z" />
    <glyph glyph-name="uacute" unicode="&#xfa;" horiz-adv-x="326" 
d="M198 0l-23 23l7 48l-71 -71h-50l-59 59l75 425h39l-73 -413l40 -40h17l85 85l66 368h38l-78 -444l9 -9h33l-5 -31h-50zM157 531l4 22l72 72h29l-4 -22l-72 -72h-29z" />
    <glyph glyph-name="ucircumflex" unicode="&#xfb;" horiz-adv-x="326" 
d="M198 0l-23 23l7 48l-71 -71h-50l-59 59l75 425h39l-73 -413l40 -40h17l85 85l66 368h38l-78 -444l9 -9h33l-5 -31h-50zM105 538l3 20l62 62h51l62 -62l-4 -20h-21l-60 60h-5l-60 -60h-28z" />
    <glyph glyph-name="udieresis" unicode="&#xfc;" horiz-adv-x="326" 
d="M198 0l-23 23l7 48l-71 -71h-50l-59 59l75 425h39l-73 -413l40 -40h17l85 85l66 368h38l-78 -444l9 -9h33l-5 -31h-50zM122 540l12 74h37l-12 -74h-37zM227 540l12 74h37l-12 -74h-37z" />
    <glyph glyph-name="yacute" unicode="&#xfd;" horiz-adv-x="291" 
d="M50 0l-5 484h40l1 -459l166 459h39l-216 -591l-63 -63h-86l6 33h61l52 52l31 85h-26zM140 531l4 22l72 72h29l-4 -22l-72 -72h-29z" />
    <glyph glyph-name="thorn" unicode="&#xfe;" horiz-adv-x="332" 
d="M-38 -170l152 860h39l-49 -275l69 69h59l59 -59l-65 -366l-59 -59h-73l-54 53l-39 -223h-39zM182 451l-87 -87l-48 -272l60 -59h41l42 42l60 338l-38 38h-30z" />
    <glyph glyph-name="ydieresis" unicode="&#xff;" horiz-adv-x="291" 
d="M50 0l-5 484h40l1 -459l166 459h39l-216 -591l-63 -63h-86l6 33h61l52 52l31 85h-26zM105 540l12 74h37l-12 -74h-37zM210 540l12 74h37l-12 -74h-37z" />
    <glyph glyph-name="Amacron" unicode="&#x100;" horiz-adv-x="331" 
d="M-44 0l237 690h62l-5 -690h-39l3 218h-144l-73 -218h-41zM220 661l-138 -407h132zM159 767l5 31h161l-5 -31h-161z" />
    <glyph glyph-name="amacron" unicode="&#x101;" 
d="M211 0l-23 23l8 53l-76 -76h-57l-59 59l65 366l59 59h75l53 -54l13 54h33l-78 -444l9 -9h33l-5 -31h-50zM83 33h28l88 88l48 273l-56 57h-44l-42 -42l-60 -338zM125 562l5 31h161l-5 -31h-161z" />
    <glyph glyph-name="Abreve" unicode="&#x102;" horiz-adv-x="331" 
d="M-44 0l237 690h62l-5 -690h-39l3 218h-144l-73 -218h-41zM220 661l-138 -407h132zM193 748l-36 36l6 36h35l-5 -28l18 -18h57l20 20l5 26h34l-6 -36l-36 -36h-92z" />
    <glyph glyph-name="abreve" unicode="&#x103;" 
d="M211 0l-23 23l8 53l-76 -76h-57l-59 59l65 366l59 59h75l53 -54l13 54h33l-78 -444l9 -9h33l-5 -31h-50zM83 33h28l88 88l48 273l-56 57h-44l-42 -42l-60 -338zM159 543l-36 36l6 36h35l-5 -28l18 -18h57l20 20l5 26h34l-6 -36l-36 -36h-92z" />
    <glyph glyph-name="Aogonek" unicode="&#x104;" horiz-adv-x="331" 
d="M-44 0l237 690h62l-5 -690l-63 -63l-8 -48l9 -9h40l-5 -27h-54l-27 27l12 65l57 57l3 216h-144l-73 -218h-41zM220 661l-138 -407h132z" />
    <glyph glyph-name="aogonek" unicode="&#x105;" 
d="M171 -147l-27 27l12 65l55 55l-23 23l8 53l-76 -76h-57l-59 59l65 366l59 59h75l53 -54l13 54h33l-78 -444l9 -9h33l-5 -31h-9l-63 -63l-8 -48l9 -9h40l-5 -27h-54zM83 33h28l88 88l48 273l-56 57h-44l-42 -42l-60 -338z" />
    <glyph glyph-name="Cacute" unicode="&#x106;" horiz-adv-x="350" 
d="M77 0l-68 68l98 554l68 68h107l68 -68l-20 -111h-40l18 98l-46 46h-67l-51 -51l-93 -523l46 -46h67l51 51l17 97h40l-20 -115l-68 -68h-107zM206 736l4 22l72 72h29l-4 -22l-72 -72h-29z" />
    <glyph glyph-name="cacute" unicode="&#x107;" horiz-adv-x="308" 
d="M63 0l-59 59l65 366l59 59h99l59 -59l-16 -92h-39l14 80l-38 38h-60l-42 -42l-60 -338l38 -38h60l42 42l13 76h39l-16 -92l-59 -59h-99zM154 531l4 22l72 72h29l-4 -22l-72 -72h-29z" />
    <glyph glyph-name="Ccircumflex" unicode="&#x108;" horiz-adv-x="350" 
d="M77 0l-68 68l98 554l68 68h107l68 -68l-20 -111h-40l18 98l-46 46h-67l-51 -51l-93 -523l46 -46h67l51 51l17 97h40l-20 -115l-68 -68h-107zM154 743l3 20l62 62h51l62 -62l-4 -20h-21l-60 60h-5l-60 -60h-28z" />
    <glyph glyph-name="ccircumflex" unicode="&#x109;" horiz-adv-x="308" 
d="M63 0l-59 59l65 366l59 59h99l59 -59l-16 -92h-39l14 80l-38 38h-60l-42 -42l-60 -338l38 -38h60l42 42l13 76h39l-16 -92l-59 -59h-99zM102 538l3 20l62 62h51l62 -62l-4 -20h-21l-60 60h-5l-60 -60h-28z" />
    <glyph glyph-name="Ccaron" unicode="&#x10c;" horiz-adv-x="350" 
d="M77 0l-68 68l98 554l68 68h107l68 -68l-20 -111h-40l18 98l-46 46h-67l-51 -51l-93 -523l46 -46h67l51 51l17 97h40l-20 -115l-68 -68h-107zM221 743l-62 62l4 20h21l60 -60h5l60 60h28l-3 -20l-62 -62h-51z" />
    <glyph glyph-name="ccaron" unicode="&#x10d;" horiz-adv-x="308" 
d="M63 0l-59 59l65 366l59 59h99l59 -59l-16 -92h-39l14 80l-38 38h-60l-42 -42l-60 -338l38 -38h60l42 42l13 76h39l-16 -92l-59 -59h-99zM169 538l-62 62l4 20h21l60 -60h5l60 60h28l-3 -20l-62 -62h-51z" />
    <glyph glyph-name="Dcaron" unicode="&#x10e;" horiz-adv-x="374" 
d="M3 0l122 690h172l68 -68l-98 -554l-68 -68h-196zM49 35h130l51 51l93 523l-46 46h-118zM225 743l-62 62l4 20h21l60 -60h5l60 60h28l-3 -20l-62 -62h-51z" />
    <glyph glyph-name="dcaron" unicode="&#x10f;" 
d="M211 0l-23 23l8 53l-76 -76h-57l-59 59l65 366l59 59h75l51 -52l46 258h39l-115 -650l9 -9h33l-5 -31h-50zM83 33h28l88 88l48 273l-56 57h-44l-42 -42l-60 -338zM359 577l20 113h35l-19 -105l-8 -8h-28z" />
    <glyph glyph-name="Dcroat" unicode="&#x110;" horiz-adv-x="374" 
d="M8 335l6 34h54l57 321h172l68 -68l-98 -554l-68 -68h-196l59 335h-54zM49 35h130l51 51l93 523l-46 46h-118l-51 -286h91l-6 -34h-91z" />
    <glyph glyph-name="dcroat" unicode="&#x111;" 
d="M211 0l-23 23l8 53l-76 -76h-57l-59 59l65 366l59 59h75l51 -52l25 141h-75l5 31h76l15 86h39l-15 -86h40l-5 -31h-41l-94 -533l9 -9h33l-5 -31h-50zM83 33h28l88 88l48 273l-56 57h-44l-42 -42l-60 -338z" />
    <glyph glyph-name="Emacron" unicode="&#x112;" horiz-adv-x="320" 
d="M3 0l122 690h212l-6 -35h-172l-52 -291h162l-6 -35h-162l-52 -294h176l-6 -35h-216zM161 767l5 31h161l-5 -31h-161z" />
    <glyph glyph-name="emacron" unicode="&#x113;" horiz-adv-x="323" 
d="M63 0l-59 59l65 366l59 59h101l59 -59l-34 -190h-180l-29 -164l38 -38h62l42 42l11 64h39l-14 -80l-59 -59h-101zM105 409l-25 -141h141l26 145l-38 38h-62zM117 562l5 31h161l-5 -31h-161z" />
    <glyph glyph-name="Edotaccent" unicode="&#x116;" horiz-adv-x="320" 
d="M3 0l122 690h212l-6 -35h-172l-52 -291h162l-6 -35h-162l-52 -294h176l-6 -35h-216zM226 745l-15 15l7 45l15 15h29l15 -15l-7 -45l-15 -15h-29z" />
    <glyph glyph-name="edotaccent" unicode="&#x117;" horiz-adv-x="323" 
d="M63 0l-59 59l65 366l59 59h101l59 -59l-34 -190h-180l-29 -164l38 -38h62l42 42l11 64h39l-14 -80l-59 -59h-101zM105 409l-25 -141h141l26 145l-38 38h-62zM182 540l-15 15l7 45l15 15h29l15 -15l-7 -45l-15 -15h-29z" />
    <glyph glyph-name="Eogonek" unicode="&#x118;" horiz-adv-x="320" 
d="M3 0l122 690h212l-6 -35h-172l-52 -291h162l-6 -35h-162l-52 -294h176l-6 -35l-63 -63l-8 -48l9 -9h40l-5 -27h-54l-27 27l12 65l55 55h-175z" />
    <glyph glyph-name="eogonek" unicode="&#x119;" horiz-adv-x="323" 
d="M63 0l-59 59l65 366l59 59h101l59 -59l-34 -190h-180l-29 -164l38 -38h62l42 42l11 64h39l-14 -80l-122 -122l-8 -48l9 -9h40l-5 -27h-54l-27 27l12 65l55 55h-60zM105 409l-25 -141h141l26 145l-38 38h-62z" />
    <glyph glyph-name="Ecaron" unicode="&#x11a;" horiz-adv-x="320" 
d="M3 0l122 690h212l-6 -35h-172l-52 -291h162l-6 -35h-162l-52 -294h176l-6 -35h-216zM217 743l-62 62l4 20h21l60 -60h5l60 60h28l-3 -20l-62 -62h-51z" />
    <glyph glyph-name="ecaron" unicode="&#x11b;" horiz-adv-x="323" 
d="M63 0l-59 59l65 366l59 59h101l59 -59l-34 -190h-180l-29 -164l38 -38h62l42 42l11 64h39l-14 -80l-59 -59h-101zM105 409l-25 -141h141l26 145l-38 38h-62zM173 538l-62 62l4 20h21l60 -60h5l60 60h28l-3 -20l-62 -62h-51z" />
    <glyph glyph-name="Gcircumflex" unicode="&#x11c;" horiz-adv-x="357" 
d="M77 0l-68 68l98 554l68 68h111l68 -68l-17 -99h-40l15 86l-46 46h-71l-51 -51l-93 -523l46 -46h71l51 51l39 219h-87l6 35h127l-48 -272l-68 -68h-111zM156 743l3 20l62 62h51l62 -62l-4 -20h-21l-60 60h-5l-60 -60h-28z" />
    <glyph glyph-name="gcircumflex" unicode="&#x11d;" 
d="M30 -170l-54 54l12 65h39l-10 -53l33 -33h73l42 42l35 198l-75 -75h-57l-59 59l60 338l59 59h79l53 -54l13 54h33l-105 -595l-59 -59h-112zM88 61h28l93 93l42 240l-56 57h-48l-42 -42l-55 -310zM115 538l3 20l62 62h51l62 -62l-4 -20h-21l-60 60h-5l-60 -60h-28z" />
    <glyph glyph-name="Gbreve" unicode="&#x11e;" horiz-adv-x="357" 
d="M77 0l-68 68l98 554l68 68h111l68 -68l-17 -99h-40l15 86l-46 46h-71l-51 -51l-93 -523l46 -46h71l51 51l39 219h-87l6 35h127l-48 -272l-68 -68h-111zM201 748l-36 36l6 36h35l-5 -28l18 -18h57l20 20l5 26h34l-6 -36l-36 -36h-92z" />
    <glyph glyph-name="gbreve" unicode="&#x11f;" 
d="M30 -170l-54 54l12 65h39l-10 -53l33 -33h73l42 42l35 198l-75 -75h-57l-59 59l60 338l59 59h79l53 -54l13 54h33l-105 -595l-59 -59h-112zM88 61h28l93 93l42 240l-56 57h-48l-42 -42l-55 -310zM160 543l-36 36l6 36h35l-5 -28l18 -18h57l20 20l5 26h34l-6 -36l-36 -36
h-92z" />
    <glyph glyph-name="Gcommaaccent" unicode="&#x122;" horiz-adv-x="357" 
d="M77 0l-68 68l98 554l68 68h111l68 -68l-17 -99h-40l15 86l-46 46h-71l-51 -51l-93 -523l46 -46h71l51 51l39 219h-87l6 35h127l-48 -272l-68 -68h-111zM88 -149l20 113h35l-19 -105l-8 -8h-28z" />
    <glyph glyph-name="gcommaaccent" unicode="&#x123;" 
d="M30 -170l-54 54l12 65h39l-10 -53l33 -33h73l42 42l35 198l-75 -75h-57l-59 59l60 338l59 59h79l53 -54l13 54h33l-105 -595l-59 -59h-112zM88 61h28l93 93l42 240l-56 57h-48l-42 -42l-55 -310zM234 640l-20 -113h-35l19 105l8 8h28z" />
    <glyph glyph-name="Hcircumflex" unicode="&#x124;" horiz-adv-x="375" 
d="M210 0l57 324h-167l-57 -324h-40l122 690h40l-58 -328h167l58 328h40l-122 -690h-40zM170 743l3 20l62 62h51l62 -62l-4 -20h-21l-60 60h-5l-60 -60h-28z" />
    <glyph glyph-name="hcircumflex" unicode="&#x125;" horiz-adv-x="334" 
d="M-8 0l122 690h39l-49 -275l69 69h54l59 -59l-68 -385l9 -9h33l-5 -31h-50l-28 28l68 385l-40 40h-21l-89 -89l-64 -364h-39zM53 712l3 20l62 62h51l62 -62l-4 -20h-21l-60 60h-5l-60 -60h-28z" />
    <glyph glyph-name="Imacron" unicode="&#x12a;" horiz-adv-x="250" 
d="M88 657l6 33h184l-6 -33h-73l-110 -624h73l-6 -33h-184l6 33h71l110 624h-71zM119 767l5 31h161l-5 -31h-161z" />
    <glyph glyph-name="imacron" unicode="&#x12b;" horiz-adv-x="173" 
d="M33 0l-28 28l80 456h39l-78 -444l9 -9h33l-5 -31h-50zM38 562l5 31h161l-5 -31h-161z" />
    <glyph glyph-name="Iogonek" unicode="&#x12e;" horiz-adv-x="250" 
d="M4 -147l-27 27l12 65l55 55h-72l6 33h71l110 624h-71l6 33h184l-6 -33h-73l-110 -624h73l-6 -33h-71l-63 -63l-8 -48l9 -9h40l-5 -27h-54z" />
    <glyph glyph-name="iogonek" unicode="&#x12f;" horiz-adv-x="173" 
d="M-7 -147l-27 27l12 65l55 55l-28 28l80 456h39l-78 -444l9 -9h33l-5 -31h-9l-63 -63l-8 -48l9 -9h40l-5 -27h-54zM102 576l17 98h39l-17 -98h-39z" />
    <glyph glyph-name="Idotaccent" unicode="&#x130;" horiz-adv-x="250" 
d="M88 657l6 33h184l-6 -33h-73l-110 -624h73l-6 -33h-184l6 33h71l110 624h-71zM184 745l-15 15l7 45l15 15h29l15 -15l-7 -45l-15 -15h-29z" />
    <glyph glyph-name="dotlessi" unicode="&#x131;" horiz-adv-x="173" 
d="M33 0l-28 28l80 456h39l-78 -444l9 -9h33l-5 -31h-50z" />
    <glyph glyph-name="Jcircumflex" unicode="&#x134;" horiz-adv-x="243" 
d="M-39 0l6 35h78l51 51l107 604h40l-110 -622l-68 -68h-104zM141 743l3 20l62 62h51l62 -62l-4 -20h-21l-60 60h-5l-60 -60h-28z" />
    <glyph glyph-name="jcircumflex" unicode="&#x135;" horiz-adv-x="163" 
d="M-127 -170l6 33h63l42 42l101 579h39l-104 -595l-59 -59h-88zM27 538l3 20l62 62h51l62 -62l-4 -20h-21l-60 60h-5l-60 -60h-28z" />
    <glyph glyph-name="Kcommaaccent" unicode="&#x136;" horiz-adv-x="374" 
d="M3 0l122 690h40l-76 -430l254 430h43l-170 -285l72 -405h-40l-61 359l-112 -176l-32 -183h-40zM98 -148l20 113h35l-19 -105l-8 -8h-28z" />
    <glyph glyph-name="kcommaaccent" unicode="&#x137;" horiz-adv-x="315" 
d="M-8 0l122 690h39l-87 -489l200 283h44l-133 -185l63 -299h-39l-53 260l-93 -125l-24 -135h-39zM69 -148l20 113h35l-19 -105l-8 -8h-28z" />
    <glyph glyph-name="Lacute" unicode="&#x139;" horiz-adv-x="281" 
d="M165 690l-116 -655h165l-6 -35h-205l122 690h40zM137 736l4 22l72 72h29l-4 -22l-72 -72h-29z" />
    <glyph glyph-name="lacute" unicode="&#x13a;" horiz-adv-x="173" 
d="M33 0l-28 28l117 662h39l-115 -650l9 -9h33l-5 -31h-50zM130 720l4 22l72 72h29l-4 -22l-72 -72h-29z" />
    <glyph glyph-name="Lcommaaccent" unicode="&#x13b;" horiz-adv-x="281" 
d="M165 690l-116 -655h165l-6 -35h-205l122 690h40zM64 -148l20 113h35l-19 -105l-8 -8h-28z" />
    <glyph glyph-name="lcommaaccent" unicode="&#x13c;" horiz-adv-x="173" 
d="M33 0l-28 28l117 662h39l-115 -650l9 -9h33l-5 -31h-50zM-4 -148l20 113h35l-19 -105l-8 -8h-28z" />
    <glyph glyph-name="Lcaron" unicode="&#x13d;" horiz-adv-x="281" 
d="M165 690l-116 -655h165l-6 -35h-205l122 690h40zM214 608l20 113h35l-19 -105l-8 -8h-28z" />
    <glyph glyph-name="lcaron" unicode="&#x13e;" horiz-adv-x="173" 
d="M33 0l-28 28l117 662h39l-115 -650l9 -9h33l-5 -31h-50zM181 577l20 113h35l-19 -105l-8 -8h-28z" />
    <glyph glyph-name="Lslash" unicode="&#x141;" horiz-adv-x="281" 
d="M2 295l8 43l58 30l57 322h40l-53 -299l108 57l-9 -43l-107 -56l-55 -314h165l-6 -35h-205l57 326z" />
    <glyph glyph-name="lslash" unicode="&#x142;" horiz-adv-x="178" 
d="M-2 316l7 41l69 36l53 297h39l-49 -275l72 38l-8 -41l-71 -37l-59 -335l9 -9h33l-5 -31h-50l-28 28l57 324z" />
    <glyph glyph-name="Nacute" unicode="&#x143;" horiz-adv-x="388" 
d="M3 0l122 690h42l75 -593l105 593h38l-122 -690h-42l-75 596l-105 -596h-38zM229 736l4 22l72 72h29l-4 -22l-72 -72h-29z" />
    <glyph glyph-name="nacute" unicode="&#x144;" horiz-adv-x="334" 
d="M-8 0l86 484h33l-10 -67l67 67h59l59 -59l-68 -385l9 -9h33l-5 -31h-50l-28 28l68 385l-40 40h-24l-86 -86l-64 -367h-39zM161 531l4 22l72 72h29l-4 -22l-72 -72h-29z" />
    <glyph glyph-name="Ncommaaccent" unicode="&#x145;" horiz-adv-x="388" 
d="M3 0l122 690h42l75 -593l105 593h38l-122 -690h-42l-75 596l-105 -596h-38zM90 -148l20 113h35l-19 -105l-8 -8h-28z" />
    <glyph glyph-name="ncommaaccent" unicode="&#x146;" horiz-adv-x="334" 
d="M-8 0l86 484h33l-10 -67l67 67h59l59 -59l-68 -385l9 -9h33l-5 -31h-50l-28 28l68 385l-40 40h-24l-86 -86l-64 -367h-39zM69 -148l20 113h35l-19 -105l-8 -8h-28z" />
    <glyph glyph-name="Ncaron" unicode="&#x147;" horiz-adv-x="388" 
d="M3 0l122 690h42l75 -593l105 593h38l-122 -690h-42l-75 596l-105 -596h-38zM244 743l-62 62l4 20h21l60 -60h5l60 60h28l-3 -20l-62 -62h-51z" />
    <glyph glyph-name="ncaron" unicode="&#x148;" horiz-adv-x="334" 
d="M-8 0l86 484h33l-10 -67l67 67h59l59 -59l-68 -385l9 -9h33l-5 -31h-50l-28 28l68 385l-40 40h-24l-86 -86l-64 -367h-39zM176 538l-62 62l4 20h21l60 -60h5l60 60h28l-3 -20l-62 -62h-51z" />
    <glyph glyph-name="Omacron" unicode="&#x14c;" horiz-adv-x="372" 
d="M77 0l-68 68l98 554l68 68h120l68 -68l-98 -554l-68 -68h-120zM97 35h80l51 51l93 523l-46 46h-80l-51 -51l-93 -523zM168 767l5 31h161l-5 -31h-161z" />
    <glyph glyph-name="omacron" unicode="&#x14d;" 
d="M63 0l-59 59l65 366l59 59h111l59 -59l-65 -366l-59 -59h-111zM83 33h72l42 42l60 338l-38 38h-72l-42 -42l-60 -338zM117 562l5 31h161l-5 -31h-161z" />
    <glyph glyph-name="Ohungarumlaut" unicode="&#x150;" horiz-adv-x="372" 
d="M77 0l-68 68l98 554l68 68h120l68 -68l-98 -554l-68 -68h-120zM97 35h80l51 51l93 523l-46 46h-80l-51 -51l-93 -523zM179 736l4 22l72 72h25l-4 -22l-72 -72h-25zM264 736l4 22l72 72h25l-4 -22l-72 -72h-25z" />
    <glyph glyph-name="ohungarumlaut" unicode="&#x151;" 
d="M63 0l-59 59l65 366l59 59h111l59 -59l-65 -366l-59 -59h-111zM83 33h72l42 42l60 338l-38 38h-72l-42 -42l-60 -338zM128 531l4 22l72 72h25l-4 -22l-72 -72h-25zM213 531l4 22l72 72h25l-4 -22l-72 -72h-25z" />
    <glyph glyph-name="OE" unicode="&#x152;" horiz-adv-x="526" 
d="M77 0l-68 68l98 554l68 68h368l-6 -35h-172l-52 -291h162l-6 -35h-162l-52 -294h176l-6 -35h-348zM97 35h118l110 620h-130l-51 -51l-93 -523z" />
    <glyph glyph-name="oe" unicode="&#x153;" horiz-adv-x="513" 
d="M63 0l-59 59l65 366l59 59h109l41 -42l42 42h99l59 -59l-34 -190h-180l-29 -164l38 -38h62l42 42l11 64h39l-14 -80l-59 -59h-99l-42 41l-41 -41h-109zM83 33h72l42 42l60 338l-38 38h-72l-42 -42l-60 -338zM295 409l-25 -141h141l26 145l-38 38h-62z" />
    <glyph glyph-name="Racute" unicode="&#x154;" horiz-adv-x="370" 
d="M203 318h-104l-56 -318h-40l122 690h166l68 -68l-39 -223l-79 -79l28 -285h41l-6 -35h-71zM159 655l-53 -301h119l57 57l35 198l-46 46h-112zM200 736l4 22l72 72h29l-4 -22l-72 -72h-29z" />
    <glyph glyph-name="racute" unicode="&#x155;" horiz-adv-x="230" 
d="M-8 0l86 484h33l-10 -67l67 67h70l-6 -35h-55l-81 -81l-65 -368h-39zM132 531l4 22l72 72h29l-4 -22l-72 -72h-29z" />
    <glyph glyph-name="Rcommaaccent" unicode="&#x156;" horiz-adv-x="370" 
d="M203 318h-104l-56 -318h-40l122 690h166l68 -68l-39 -223l-79 -79l28 -285h41l-6 -35h-71zM159 655l-53 -301h119l57 57l35 198l-46 46h-112zM95 -148l20 113h35l-19 -105l-8 -8h-28z" />
    <glyph glyph-name="rcommaaccent" unicode="&#x157;" horiz-adv-x="230" 
d="M-8 0l86 484h33l-10 -67l67 67h70l-6 -35h-55l-81 -81l-65 -368h-39zM-34 -148l20 113h35l-19 -105l-8 -8h-28z" />
    <glyph glyph-name="Rcaron" unicode="&#x158;" horiz-adv-x="370" 
d="M203 318h-104l-56 -318h-40l122 690h166l68 -68l-39 -223l-79 -79l28 -285h41l-6 -35h-71zM159 655l-53 -301h119l57 57l35 198l-46 46h-112zM215 743l-62 62l4 20h21l60 -60h5l60 60h28l-3 -20l-62 -62h-51z" />
    <glyph glyph-name="rcaron" unicode="&#x159;" horiz-adv-x="230" 
d="M-8 0l86 484h33l-10 -67l67 67h70l-6 -35h-55l-81 -81l-65 -368h-39zM147 538l-62 62l4 20h21l60 -60h5l60 60h28l-3 -20l-62 -62h-51z" />
    <glyph glyph-name="Sacute" unicode="&#x15a;" 
d="M62 0l-64 64l19 103h39l-16 -90l42 -42h74l51 51l36 206l-31 31l-95 27l-56 56l38 216l68 68h107l66 -66l-18 -101h-40l16 88l-44 44h-67l-51 -51l-33 -185l33 -33l94 -26l55 -55l-41 -237l-68 -68h-114zM198 736l4 22l72 72h29l-4 -22l-72 -72h-29z" />
    <glyph glyph-name="sacute" unicode="&#x15b;" horiz-adv-x="312" 
d="M55 0l-60 60l14 79h39l-12 -67l39 -39h63l42 42l21 117l-24 24l-95 25l-45 45l25 139l59 59h97l59 -59l-14 -80h-39l12 68l-38 38h-58l-42 -42l-20 -111l24 -24l96 -26l44 -44l-26 -145l-59 -59h-102zM148 531l4 22l72 72h29l-4 -22l-72 -72h-29z" />
    <glyph glyph-name="Scircumflex" unicode="&#x15c;" 
d="M62 0l-64 64l19 103h39l-16 -90l42 -42h74l51 51l36 206l-31 31l-95 27l-56 56l38 216l68 68h107l66 -66l-18 -101h-40l16 88l-44 44h-67l-51 -51l-33 -185l33 -33l94 -26l55 -55l-41 -237l-68 -68h-114zM146 743l3 20l62 62h51l62 -62l-4 -20h-21l-60 60h-5l-60 -60h-28
z" />
    <glyph glyph-name="scircumflex" unicode="&#x15d;" horiz-adv-x="312" 
d="M55 0l-60 60l14 79h39l-12 -67l39 -39h63l42 42l21 117l-24 24l-95 25l-45 45l25 139l59 59h97l59 -59l-14 -80h-39l12 68l-38 38h-58l-42 -42l-20 -111l24 -24l96 -26l44 -44l-26 -145l-59 -59h-102zM96 538l3 20l62 62h51l62 -62l-4 -20h-21l-60 60h-5l-60 -60h-28z
" />
    <glyph glyph-name="Scedilla" unicode="&#x15e;" 
d="M62 0l-64 64l19 103h39l-16 -90l42 -42h74l51 51l36 206l-31 31l-95 27l-56 56l38 216l68 68h107l66 -66l-18 -101h-40l16 88l-44 44h-67l-51 -51l-33 -185l33 -33l94 -26l55 -55l-41 -237l-68 -68h-45l-8 -43h28l25 -25l-9 -54l-25 -25h-94l5 27h70l11 11l5 28l-11 11
h-36l-4 4l12 66h-38z" />
    <glyph glyph-name="scedilla" unicode="&#x15f;" horiz-adv-x="312" 
d="M55 0l-60 60l14 79h39l-12 -67l39 -39h63l42 42l21 117l-24 24l-95 25l-45 45l25 139l59 59h97l59 -59l-14 -80h-39l12 68l-38 38h-58l-42 -42l-20 -111l24 -24l96 -26l44 -44l-26 -145l-59 -59h-43l-8 -43h28l25 -25l-9 -54l-25 -25h-94l5 27h70l11 11l5 28l-11 11h-36
l-4 4l12 66h-28z" />
    <glyph glyph-name="Scaron" unicode="&#x160;" 
d="M62 0l-64 64l19 103h39l-16 -90l42 -42h74l51 51l36 206l-31 31l-95 27l-56 56l38 216l68 68h107l66 -66l-18 -101h-40l16 88l-44 44h-67l-51 -51l-33 -185l33 -33l94 -26l55 -55l-41 -237l-68 -68h-114zM213 743l-62 62l4 20h21l60 -60h5l60 60h28l-3 -20l-62 -62h-51z
" />
    <glyph glyph-name="scaron" unicode="&#x161;" horiz-adv-x="312" 
d="M55 0l-60 60l14 79h39l-12 -67l39 -39h63l42 42l21 117l-24 24l-95 25l-45 45l25 139l59 59h97l59 -59l-14 -80h-39l12 68l-38 38h-58l-42 -42l-20 -111l24 -24l96 -26l44 -44l-26 -145l-59 -59h-102zM163 538l-62 62l4 20h21l60 -60h5l60 60h28l-3 -20l-62 -62h-51z" />
    <glyph glyph-name="Tcommaaccent" unicode="&#x162;" horiz-adv-x="285" 
d="M333 656h-115l-115 -656h-40l116 656h-117l7 34h271zM40 -148l20 113h35l-19 -105l-8 -8h-28z" />
    <glyph glyph-name="tcommaaccent" unicode="&#x163;" horiz-adv-x="255" 
d="M34 451l6 33h57l26 149h39l-26 -149h119l-6 -33h-119l-67 -380l38 -38h78l-6 -33h-92l-59 59l69 392h-57zM54 -148l20 113h35l-19 -105l-8 -8h-28z" />
    <glyph glyph-name="Tcaron" unicode="&#x164;" horiz-adv-x="285" 
d="M333 656h-115l-115 -656h-40l116 656h-117l7 34h271zM194 743l-62 62l4 20h21l60 -60h5l60 60h28l-3 -20l-62 -62h-51z" />
    <glyph glyph-name="tcaron" unicode="&#x165;" horiz-adv-x="255" 
d="M34 451l6 33h57l26 149h39l-26 -149h119l-6 -33h-119l-67 -380l38 -38h78l-6 -33h-92l-59 59l69 392h-57zM204 554l20 113h35l-19 -105l-8 -8h-28z" />
    <glyph glyph-name="Umacron" unicode="&#x16a;" horiz-adv-x="366" 
d="M80 0l-68 68l110 622h40l-108 -609l46 -46h71l51 51l107 604h40l-110 -622l-68 -68h-111zM176 767l5 31h161l-5 -31h-161z" />
    <glyph glyph-name="umacron" unicode="&#x16b;" horiz-adv-x="326" 
d="M198 0l-23 23l7 48l-71 -71h-50l-59 59l75 425h39l-73 -413l40 -40h17l85 85l66 368h38l-78 -444l9 -9h33l-5 -31h-50zM116 562l5 31h161l-5 -31h-161z" />
    <glyph glyph-name="Ubreve" unicode="&#x16c;" horiz-adv-x="366" 
d="M80 0l-68 68l110 622h40l-108 -609l46 -46h71l51 51l107 604h40l-110 -622l-68 -68h-111zM210 748l-36 36l6 36h35l-5 -28l18 -18h57l20 20l5 26h34l-6 -36l-36 -36h-92z" />
    <glyph glyph-name="ubreve" unicode="&#x16d;" horiz-adv-x="326" 
d="M198 0l-23 23l7 48l-71 -71h-50l-59 59l75 425h39l-73 -413l40 -40h17l85 85l66 368h38l-78 -444l9 -9h33l-5 -31h-50zM150 543l-36 36l6 36h35l-5 -28l18 -18h57l20 20l5 26h34l-6 -36l-36 -36h-92z" />
    <glyph glyph-name="Uring" unicode="&#x16e;" horiz-adv-x="366" 
d="M80 0l-68 68l110 622h40l-108 -609l46 -46h71l51 51l107 604h40l-110 -622l-68 -68h-111zM228 725l-30 30l9 55l30 30h54l30 -30l-9 -55l-30 -30h-54zM242 747h28l16 16l7 40l-16 16h-28l-16 -16l-7 -40z" />
    <glyph glyph-name="uring" unicode="&#x16f;" horiz-adv-x="326" 
d="M198 0l-23 23l7 48l-71 -71h-50l-59 59l75 425h39l-73 -413l40 -40h17l85 85l66 368h38l-78 -444l9 -9h33l-5 -31h-50zM168 520l-30 30l9 55l30 30h54l30 -30l-9 -55l-30 -30h-54zM182 542h28l16 16l7 40l-16 16h-28l-16 -16l-7 -40z" />
    <glyph glyph-name="Uhungarumlaut" unicode="&#x170;" horiz-adv-x="366" 
d="M80 0l-68 68l110 622h40l-108 -609l46 -46h71l51 51l107 604h40l-110 -622l-68 -68h-111zM187 736l4 22l72 72h25l-4 -22l-72 -72h-25zM272 736l4 22l72 72h25l-4 -22l-72 -72h-25z" />
    <glyph glyph-name="uhungarumlaut" unicode="&#x171;" horiz-adv-x="326" 
d="M198 0l-23 23l7 48l-71 -71h-50l-59 59l75 425h39l-73 -413l40 -40h17l85 85l66 368h38l-78 -444l9 -9h33l-5 -31h-50zM127 531l4 22l72 72h25l-4 -22l-72 -72h-25zM212 531l4 22l72 72h25l-4 -22l-72 -72h-25z" />
    <glyph glyph-name="Uogonek" unicode="&#x172;" horiz-adv-x="366" 
d="M80 0l-68 68l110 622h40l-108 -609l46 -46h71l51 51l107 604h40l-110 -622l-68 -68h-38l-63 -63l-8 -48l9 -9h40l-5 -27h-54l-27 27l12 65l55 55h-32z" />
    <glyph glyph-name="uogonek" unicode="&#x173;" horiz-adv-x="326" 
d="M158 -147l-27 27l12 65l55 55l-23 23l7 48l-71 -71h-50l-59 59l75 425h39l-73 -413l40 -40h17l85 85l66 368h38l-78 -444l9 -9h33l-5 -31h-9l-63 -63l-8 -48l9 -9h40l-5 -27h-54z" />
    <glyph glyph-name="Ydieresis" unicode="&#x178;" horiz-adv-x="317" 
d="M76 0l42 237l-43 453h38l37 -390l173 390h39l-204 -453l-42 -237h-40zM157 745l12 74h37l-12 -74h-37zM262 745l12 74h37l-12 -74h-37z" />
    <glyph glyph-name="Zacute" unicode="&#x179;" horiz-adv-x="305" 
d="M-25 0l5 29l300 626h-185l7 35h228l-5 -28l-300 -627h193l-6 -35h-237zM182 736l4 22l72 72h29l-4 -22l-72 -72h-29z" />
    <glyph glyph-name="zacute" unicode="&#x17a;" horiz-adv-x="252" 
d="M-42 0l5 29l244 422h-166l6 33h209l-5 -28l-244 -423h169l-6 -33h-212zM120 531l4 22l72 72h29l-4 -22l-72 -72h-29z" />
    <glyph glyph-name="Zdotaccent" unicode="&#x17b;" horiz-adv-x="305" 
d="M-25 0l5 29l300 626h-185l7 35h228l-5 -28l-300 -627h193l-6 -35h-237zM206 745l-15 15l7 45l15 15h29l15 -15l-7 -45l-15 -15h-29z" />
    <glyph glyph-name="zdotaccent" unicode="&#x17c;" horiz-adv-x="252" 
d="M-42 0l5 29l244 422h-166l6 33h209l-5 -28l-244 -423h169l-6 -33h-212zM144 540l-15 15l7 45l15 15h29l15 -15l-7 -45l-15 -15h-29z" />
    <glyph glyph-name="Zcaron" unicode="&#x17d;" horiz-adv-x="305" 
d="M-25 0l5 29l300 626h-185l7 35h228l-5 -28l-300 -627h193l-6 -35h-237zM197 743l-62 62l4 20h21l60 -60h5l60 60h28l-3 -20l-62 -62h-51z" />
    <glyph glyph-name="zcaron" unicode="&#x17e;" horiz-adv-x="252" 
d="M-42 0l5 29l244 422h-166l6 33h209l-5 -28l-244 -423h169l-6 -33h-212zM135 538l-62 62l4 20h21l60 -60h5l60 60h28l-3 -20l-62 -62h-51z" />
    <glyph glyph-name="florin" unicode="&#x192;" horiz-adv-x="278" 
d="M31 388l6 34h75l36 200l68 68h97l-6 -35h-71l-51 -51l-32 -182h109l-6 -34h-109l-58 -328l-60 -60h-73l6 35h47l43 43l54 310h-75z" />
    <glyph glyph-name="Scommaaccent" unicode="&#x218;" 
d="M62 0l-64 64l19 103h39l-16 -90l42 -42h74l51 51l36 206l-31 31l-95 27l-56 56l38 216l68 68h107l66 -66l-18 -101h-40l16 88l-44 44h-67l-51 -51l-33 -185l33 -33l94 -26l55 -55l-41 -237l-68 -68h-114zM81 -148l20 113h35l-19 -105l-8 -8h-28z" />
    <glyph glyph-name="scommaaccent" unicode="&#x219;" horiz-adv-x="312" 
d="M55 0l-60 60l14 79h39l-12 -67l39 -39h63l42 42l21 117l-24 24l-95 25l-45 45l25 139l59 59h97l59 -59l-14 -80h-39l12 68l-38 38h-58l-42 -42l-20 -111l24 -24l96 -26l44 -44l-26 -145l-59 -59h-102zM62 -148l20 113h35l-19 -105l-8 -8h-28z" />
    <glyph glyph-name="uni0237" unicode="&#x237;" horiz-adv-x="163" 
d="M-127 -170l6 33h63l42 42l101 579h39l-104 -595l-59 -59h-88z" />
    <glyph glyph-name="circumflex" unicode="&#x2c6;" horiz-adv-x="294" 
d="M86 538l3 20l62 62h51l62 -62l-4 -20h-21l-60 60h-5l-60 -60h-28z" />
    <glyph glyph-name="caron" unicode="&#x2c7;" horiz-adv-x="294" 
d="M141 538l-62 62l4 20h21l60 -60h5l60 60h28l-3 -20l-62 -62h-51z" />
    <glyph glyph-name="breve" unicode="&#x2d8;" horiz-adv-x="294" 
d="M127 543l-36 36l6 36h35l-5 -28l18 -18h57l20 20l5 26h34l-6 -36l-36 -36h-92z" />
    <glyph glyph-name="dotaccent" unicode="&#x2d9;" horiz-adv-x="294" 
d="M156 540l-15 15l7 45l15 15h29l15 -15l-7 -45l-15 -15h-29z" />
    <glyph glyph-name="ring" unicode="&#x2da;" horiz-adv-x="294" 
d="M141 520l-30 30l9 55l30 30h54l30 -30l-9 -55l-30 -30h-54zM155 542h28l16 16l7 40l-16 16h-28l-16 -16l-7 -40z" />
    <glyph glyph-name="ogonek" unicode="&#x2db;" horiz-adv-x="294" 
d="M35 -147l-27 27l12 65l55 55h41l-63 -63l-8 -48l9 -9h40l-5 -27h-54z" />
    <glyph glyph-name="tilde" unicode="&#x2dc;" horiz-adv-x="294" 
d="M77 543l7 34l35 35h45l42 -42h14l18 18l5 24h34l-7 -34l-35 -35h-45l-42 42h-14l-18 -18l-5 -24h-34z" />
    <glyph glyph-name="hungarumlaut" unicode="&#x2dd;" horiz-adv-x="294" 
d="M100 531l4 22l72 72h25l-4 -22l-72 -72h-25zM185 531l4 22l72 72h25l-4 -22l-72 -72h-25z" />
    <glyph glyph-name="endash" unicode="&#x2013;" horiz-adv-x="256" 
d="M14 326l7 37h221l-7 -37h-221z" />
    <glyph glyph-name="emdash" unicode="&#x2014;" horiz-adv-x="364" 
d="M14 326l7 37h329l-7 -37h-329z" />
    <glyph glyph-name="quoteleft" unicode="&#x2018;" horiz-adv-x="135" 
d="M73 513l27 154l23 23h37l-5 -28h-18l-8 -8l-9 -49h25l-16 -92h-56z" />
    <glyph glyph-name="quoteright" unicode="&#x2019;" horiz-adv-x="135" 
d="M64 513l5 28h18l8 8l9 49h-25l16 92h56l-27 -154l-23 -23h-37z" />
    <glyph glyph-name="quotesinglbase" unicode="&#x201a;" horiz-adv-x="135" 
d="M-41 -85l5 28h18l8 8l9 49h-25l16 92h56l-27 -154l-23 -23h-37z" />
    <glyph glyph-name="quotedblleft" unicode="&#x201c;" horiz-adv-x="237" 
d="M73 513l27 154l23 23h37l-5 -28h-18l-8 -8l-9 -49h25l-16 -92h-56zM175 513l27 154l23 23h37l-5 -28h-18l-8 -8l-9 -49h25l-16 -92h-56z" />
    <glyph glyph-name="quotedblright" unicode="&#x201d;" horiz-adv-x="237" 
d="M64 513l5 28h18l8 8l9 49h-25l16 92h56l-27 -154l-23 -23h-37zM166 513l5 28h18l8 8l9 49h-25l16 92h56l-27 -154l-23 -23h-37z" />
    <glyph glyph-name="quotedblbase" unicode="&#x201e;" horiz-adv-x="237" 
d="M-41 -85l5 28h18l8 8l9 49h-25l16 92h56l-27 -154l-23 -23h-37zM61 -85l5 28h18l8 8l9 49h-25l16 92h56l-27 -154l-23 -23h-37z" />
    <glyph glyph-name="dagger" unicode="&#x2020;" horiz-adv-x="209" 
d="M63 562l6 31h61l17 97h37l-17 -97h62l-6 -31h-62l-50 -284h-36l49 284h-61z" />
    <glyph glyph-name="daggerdbl" unicode="&#x2021;" horiz-adv-x="209" 
d="M63 562l6 31h61l17 97h37l-18 -97h63l-6 -31h-62l-28 -156h63l-6 -31h-62l-17 -97h-36l17 97h-62l6 31h61l27 156h-61z" />
    <glyph glyph-name="bullet" unicode="&#x2022;" horiz-adv-x="172" 
d="M58 283l-33 33l10 57l34 33h52l34 -33l-11 -57l-33 -33h-53z" />
    <glyph glyph-name="ellipsis" unicode="&#x2026;" horiz-adv-x="438" 
d="M-8 0l16 92h56l-16 -92h-56zM138 0l16 92h56l-16 -92h-56zM284 0l16 92h56l-16 -92h-56z" />
    <glyph glyph-name="perthousand" unicode="&#x2030;" horiz-adv-x="744" 
d="M100 366l-51 51l39 222l51 51h85l51 -51l-39 -222l-51 -51h-85zM120 396h48l33 33l35 199l-32 32h-48l-33 -33l-35 -199zM278 0l-51 51l39 222l51 51h85l51 -51l-39 -222l-51 -51h-85zM298 30h48l33 33l35 199l-32 32h-48l-33 -33l-35 -199zM521 0l-51 51l39 222l51 51
h85l51 -51l-39 -222l-51 -51h-85zM541 30h48l33 33l35 199l-32 32h-48l-33 -33l-35 -199zM35 0l394 690h37l-394 -690h-37z" />
    <glyph glyph-name="guilsinglleft" unicode="&#x2039;" horiz-adv-x="171" 
d="M82 154l-58 196l126 197h41l-128 -199l58 -194h-39z" />
    <glyph glyph-name="guilsinglright" unicode="&#x203a;" horiz-adv-x="171" 
d="M94 547l58 -196l-126 -197h-41l128 199l-58 194h39z" />
    <glyph glyph-name="fraction" unicode="&#x2044;" horiz-adv-x="317" 
d="M-52 0l394 690h37l-394 -690h-37z" />
    <glyph glyph-name="Euro" unicode="&#x20ac;" horiz-adv-x="353" 
d="M32 379l6 32h34l38 211l68 68h107l68 -68l-20 -111h-40l18 98l-46 46h-67l-51 -51l-35 -193h158l-6 -32h-158l-10 -57h158l-6 -32h-157l-37 -209l46 -46h67l51 51l17 97h40l-20 -115l-68 -68h-107l-68 68l39 222h-35l6 32h35l10 57h-35z" />
    <glyph glyph-name="servicemark" unicode="&#x2120;" horiz-adv-x="452" 
d="M98 403l-35 35l8 46h28l-7 -39l18 -18h35l19 19l13 71l-11 11l-51 15l-29 29l15 83l35 35h58l35 -35l-8 -46h-29l7 39l-18 18h-34l-19 -19l-12 -68l12 -12l50 -14l29 -29l-16 -86l-35 -35h-58zM227 403l51 287h43l4 -253l93 253h45l-51 -287h-26l46 261l-97 -261h-32
l-5 260l-46 -260h-25z" />
    <glyph glyph-name="trademark" unicode="&#x2122;" horiz-adv-x="421" 
d="M196 403l51 287h43l4 -253l93 253h45l-51 -287h-26l46 261l-97 -261h-32l-5 260l-46 -260h-25zM83 666l4 24h136l-4 -24h-55l-46 -263h-28l46 263h-53z" />
    <glyph glyph-name="minus" unicode="&#x2212;" horiz-adv-x="241" 
d="M7 326l7 37h222l-7 -37h-222z" />
    <glyph glyph-name="fi" unicode="&#xfb01;" horiz-adv-x="394" 
d="M30 451l6 33h60l26 146l60 60h109l-6 -33h-84l-43 -43l-23 -130h102l-7 -33h-101l-80 -451h-39l80 451h-60zM254 0l-28 28l80 456h39l-78 -444l9 -9h33l-5 -31h-50zM323 576l17 98h39l-17 -98h-39z" />
    <glyph glyph-name="fl" unicode="&#xfb02;" horiz-adv-x="394" 
d="M30 451l6 33h60l26 146l60 60h109l-6 -33h-84l-43 -43l-23 -130h102l-7 -33h-101l-80 -451h-39l80 451h-60zM254 0l-28 28l117 662h39l-115 -650l9 -9h33l-5 -31h-50z" />
    <glyph glyph-name="commaaccent" horiz-adv-x="294" 
d="M53 -148l20 113h35l-19 -105l-8 -8h-28z" />
    <glyph glyph-name="published" horiz-adv-x="537" 
d="M83 0l-68 68l98 554l68 68h273l68 -68l-98 -554l-68 -68h-273zM103 35h233l51 51l93 523l-46 46h-233l-51 -51l-93 -523zM145 119l81 455h117l44 -44l-34 -195l-44 -44h-94l-30 -172h-40zM260 541l-39 -217h69l26 26l30 168l-23 23h-63z" />
    <glyph glyph-name="G.alt" horiz-adv-x="357" 
d="M77 0l-68 68l98 554l68 68h111l68 -68l-17 -99h-40l15 86l-46 46h-71l-51 -51l-93 -523l46 -46h58l67 67l36 203h-87l6 35h127l-60 -340h-33l7 56l-56 -56h-85z" />
    <glyph glyph-name="Gbreve.alt" horiz-adv-x="357" 
d="M77 0l-68 68l98 554l68 68h111l68 -68l-17 -99h-40l15 86l-46 46h-71l-51 -51l-93 -523l46 -46h58l67 67l36 203h-87l6 35h127l-60 -340h-33l7 56l-56 -56h-85zM203 748l-36 36l6 36h35l-5 -28l18 -18h57l20 20l5 26h34l-6 -36l-36 -36h-92z" />
    <glyph glyph-name="Gcircumflex.alt" horiz-adv-x="357" 
d="M77 0l-68 68l98 554l68 68h111l68 -68l-17 -99h-40l15 86l-46 46h-71l-51 -51l-93 -523l46 -46h58l67 67l36 203h-87l6 35h127l-60 -340h-33l7 56l-56 -56h-85zM158 743l3 20l62 62h51l62 -62l-4 -20h-21l-60 60h-5l-60 -60h-28z" />
    <glyph glyph-name="Gcommaaccent.alt" horiz-adv-x="357" 
d="M77 0l-68 68l98 554l68 68h111l68 -68l-17 -99h-40l15 86l-46 46h-71l-51 -51l-93 -523l46 -46h58l67 67l36 203h-87l6 35h127l-60 -340h-33l7 56l-56 -56h-85zM71 -148l20 113h35l-19 -105l-8 -8h-28z" />
    <glyph glyph-name="I.alt" horiz-adv-x="172" 
d="M5 0l122 690h40l-122 -690h-40z" />
    <glyph glyph-name="Iacute.alt" horiz-adv-x="172" 
d="M5 0l122 690h40l-122 -690h-40zM121 736l4 22l72 72h29l-4 -22l-72 -72h-29z" />
    <glyph glyph-name="Igrave.alt" horiz-adv-x="172" 
d="M5 0l122 690h40l-122 -690h-40zM167 736l-72 72l4 22h23l72 -72l-4 -22h-23z" />
    <glyph glyph-name="Icircumflex.alt" horiz-adv-x="172" 
d="M5 0l122 690h40l-122 -690h-40zM69 743l3 20l62 62h51l62 -62l-4 -20h-21l-60 60h-5l-60 -60h-28z" />
    <glyph glyph-name="Idieresis.alt" horiz-adv-x="172" 
d="M5 0l122 690h40l-122 -690h-40zM86 745l12 74h37l-12 -74h-37zM191 745l12 74h37l-12 -74h-37z" />
    <glyph glyph-name="Idotaccent.alt" horiz-adv-x="172" 
d="M5 0l122 690h40l-122 -690h-40zM145 745l-15 15l7 45l15 15h29l15 -15l-7 -45l-15 -15h-29z" />
    <glyph glyph-name="Imacron.alt" horiz-adv-x="172" 
d="M5 0l122 690h40l-122 -690h-40zM80 767l5 31h161l-5 -31h-161z" />
    <glyph glyph-name="Iogonek.alt" horiz-adv-x="172" 
d="M-36 -147l-27 27l12 65l56 56l122 689h40l-122 -690l-63 -63l-8 -48l9 -9h40l-5 -27h-54z" />
    <glyph glyph-name="J.alt" horiz-adv-x="334" 
d="M61 0l-68 68l32 184h40l-30 -171l46 -46h58l51 51l107 604h40l-110 -622l-68 -68h-98z" />
    <glyph glyph-name="Jcircumflex.alt" horiz-adv-x="334" 
d="M61 0l-68 68l32 184h40l-30 -171l46 -46h58l51 51l107 604h40l-110 -622l-68 -68h-98zM240 743l3 20l62 62h51l62 -62l-4 -20h-21l-60 60h-5l-60 -60h-28z" />
    <glyph glyph-name="Q.alt" horiz-adv-x="372" 
d="M295 -55l-77 76l-21 -21h-120l-68 68l98 554l68 68h120l68 -68l-98 -554l-24 -24l77 -76zM97 35h80l14 14l-55 55l23 23l55 -55l14 14l93 523l-46 46h-80l-51 -51l-93 -523z" />
    <glyph glyph-name="at.alt" horiz-adv-x="583" 
d="M192 0l-68 68l78 445l68 68h83l54 -54l11 54h34l-94 -533l13 -13h29l43 43l89 500l-77 77h-232l-82 -82l-102 -573h-39l104 591l99 99h272l99 -99l-94 -531l-60 -60h-68l-32 32l7 46l-78 -78h-57zM212 35h27l93 93l64 360l-58 58h-48l-51 -51l-73 -414z" />
    <glyph glyph-name="ampersand.alt" horiz-adv-x="385" 
d="M83 0l-68 68l42 240l69 69l-46 56l33 189l68 68h99l68 -68l-19 -109h-40l17 96l-46 46h-59l-51 -51l-29 -162l32 -38l123 -148l25 141h40l-58 -329l-68 -68h-132zM195 35l51 51l21 121l-118 143l-54 -54l-38 -215l46 -46h92z" />
    <glyph glyph-name="zero.tabular" horiz-adv-x="405" 
d="M90 0l-68 68l98 554l68 68h128l68 -68l-98 -554l-68 -68h-128zM110 35h88l51 51l93 523l-46 46h-88l-51 -51l-93 -523z" />
    <glyph glyph-name="one.tabular" horiz-adv-x="405" 
d="M19 0l6 35h113l110 620h-111l6 35h151l-116 -655h103l-6 -35h-256z" />
    <glyph glyph-name="two.tabular" horiz-adv-x="405" 
d="M23 0l51 290l61 61h119l44 44l38 214l-46 46h-74l-51 -51l-15 -81h-40l18 99l68 68h114l68 -68l-43 -245l-61 -61h-119l-44 -44l-42 -237h201l-6 -35h-241z" />
    <glyph glyph-name="three.tabular" horiz-adv-x="405" 
d="M85 0l-68 68l20 114h40l-18 -101l46 -46h86l51 51l37 211l-40 40h-116l7 36h116l57 57l32 179l-46 46h-86l-51 -51l-17 -96h-40l20 114l68 68h126l68 -68l-36 -204l-65 -65l45 -45l-42 -240l-67 -68h-127z" />
    <glyph glyph-name="four.tabular" horiz-adv-x="405" 
d="M26 205l5 30l160 455h37l-156 -451h179l80 451h39l-80 -451h48l-6 -34h-48l-36 -205h-39l36 205h-219z" />
    <glyph glyph-name="five.tabular" horiz-adv-x="405" 
d="M96 0l-68 68l21 118h40l-19 -105l46 -46h80l51 51l48 274l-40 40h-80l-60 -60h-40l62 350h250l-6 -35h-210l-46 -264l44 44h106l62 -62l-53 -305l-68 -68h-120z" />
    <glyph glyph-name="six.tabular" horiz-adv-x="405" 
d="M97 0l-68 68l98 554l68 68h125l68 -68l-20 -111h-40l18 98l-46 46h-85l-51 -51l-44 -244l55 55h104l63 -63l-50 -284l-67 -68h-128zM178 380l-66 -66l-41 -233l46 -46h87l51 51l45 253l-41 41h-81z" />
    <glyph glyph-name="seven.tabular" horiz-adv-x="405" 
d="M114 0l43 243l188 412h-231l6 35h273l-5 -29l-191 -418l-43 -243h-40z" />
    <glyph glyph-name="eight.tabular" horiz-adv-x="405" 
d="M93 0l-68 68l39 224l65 65l-45 45l39 220l68 68h131l68 -68l-36 -204l-65 -65l45 -45l-42 -240l-68 -68h-131zM113 35h91l51 51l37 211l-40 40h-93l-57 -57l-35 -199zM166 373h93l57 57l32 179l-46 46h-91l-51 -51l-34 -191z" />
    <glyph glyph-name="nine.tabular" horiz-adv-x="405" 
d="M86 0l-68 68l20 111h40l-18 -98l46 -46h85l51 51l46 260l-54 -54h-104l-63 63l47 267l67 68h128l68 -68l-98 -554l-68 -68h-125zM150 327h81l65 65l39 217l-46 46h-87l-51 -51l-42 -236z" />
    <glyph glyph-name="plus.tabular" horiz-adv-x="405" 
d="M71 327l6 34h113l24 132h36l-24 -132h112l-6 -34h-112l-23 -133h-36l23 133h-113z" />
    <glyph glyph-name="minus.tabular" horiz-adv-x="405" 
d="M89 326l7 37h222l-7 -37h-222z" />
    <glyph glyph-name="multiply.tabular" horiz-adv-x="405" 
d="M100 215l-24 24l104 104l-104 105l24 24l104 -105l105 105l24 -24l-105 -105l105 -104l-24 -24l-105 104z" />
    <glyph glyph-name="divide.tabular" horiz-adv-x="405" 
d="M155 183l13 71h41l-13 -71h-41zM72 326l7 36h258l-7 -36h-258zM199 432l13 71h41l-13 -71h-41z" />
    <glyph glyph-name="equal.tabular" horiz-adv-x="405" 
d="M62 252l6 36h257l-7 -36h-256zM87 399l6 36h257l-7 -36h-256z" />
    <glyph glyph-name="greater.tabular" horiz-adv-x="405" 
d="M107 494l247 -130l-7 -38l-293 -132l7 40l253 113l-214 110z" />
    <glyph glyph-name="less.tabular" horiz-adv-x="405" 
d="M306 196l-247 130l7 38l293 132l-7 -40l-253 -113l214 -110z" />
    <glyph glyph-name="numbersign.tabular" horiz-adv-x="405" 
d="M89 534l6 32h66l22 124h36l-22 -124h88l22 124h35l-22 -124h69l-6 -32h-69l-33 -192h68l-6 -32h-68l-21 -124h-35l21 124h-88l-21 -124h-36l21 124h-66l6 32h66l33 192h-66zM191 534l-33 -192h88l33 192h-88z" />
    <glyph glyph-name="dollar.tabular" horiz-adv-x="405" 
d="M99 20l-64 64l19 103h39l-16 -90l42 -42h71l51 51l33 184l-31 31l-95 27l-56 56l35 198l68 68h42l16 94h35l-16 -94h30l66 -66l-18 -101h-40l16 88l-44 44h-67l-51 -51l-30 -167l33 -33l94 -26l55 -55l-38 -215l-68 -68h-46l-15 -95h-35l15 95h-30z" />
    <glyph glyph-name="cent.tabular" horiz-adv-x="405" 
d="M118 70l-68 68l73 416l68 68h44l16 87h35l-16 -87h28l68 -68l-20 -111h-39l17 98l-46 46h-67l-51 -51l-68 -385l46 -46h66l51 51l17 96h40l-20 -114l-68 -68h-46l-16 -90h-35l16 90h-25z" />
    <glyph glyph-name="sterling.tabular" horiz-adv-x="405" 
d="M59 325l6 34h48l47 263l68 68h98l68 -68l-22 -123h-40l20 110l-46 46h-58l-51 -51l-44 -245h119l-6 -34h-119l-44 -249l-41 -41h225l-6 -35h-274l6 35l52 52l42 238h-48z" />
    <glyph glyph-name="yen.tabular" horiz-adv-x="405" 
d="M54 233l6 32h99l-40 425h38l37 -393l174 393h38l-192 -425h99l-5 -32h-107l-12 -69h106l-5 -32h-107l-23 -132h-40l23 132h-106l6 32h106l12 69h-107z" />
    <glyph glyph-name="florin.tabular" horiz-adv-x="405" 
d="M70 388l6 34h100l36 200l68 68h122l-6 -35h-96l-51 -51l-32 -182h134l-6 -34h-134l-58 -328l-60 -60h-98l6 35h72l43 43l54 310h-100z" />
    <glyph glyph-name="Euro.tabular" horiz-adv-x="405" 
d="M58 379l6 32h34l38 211l68 68h107l68 -68l-20 -111h-40l18 98l-46 46h-67l-51 -51l-35 -193h158l-6 -32h-158l-10 -57h158l-6 -32h-157l-37 -209l46 -46h67l51 51l17 97h40l-20 -115l-68 -68h-107l-68 68l39 222h-35l6 32h35l10 57h-35z" />
    <glyph glyph-name="section.tabular" horiz-adv-x="405" 
d="M74 -95l-64 64l25 138h39l-22 -125l42 -42h78l51 51l40 229h-189l-14 14l4 20h245l-49 -281l-68 -68h-118zM81 348l48 274l68 68h110l66 -66l-24 -136h-40l22 123l-44 44h-70l-51 -51l-40 -222h189l14 -14l-4 -20h-244z" />
    <glyph glyph-name="space.tabular" horiz-adv-x="202" 
 />
    <glyph glyph-name="colon.tabular" horiz-adv-x="202" 
d="M12 0l16 92h56l-16 -92h-56zM66 311l16 92h56l-16 -92h-56z" />
    <glyph glyph-name="semicolon.tabular" horiz-adv-x="202" 
d="M-3 -85l5 28h18l8 8l9 49h-25l16 92h56l-27 -154l-23 -23h-37zM66 311l16 92h56l-16 -92h-56z" />
    <glyph glyph-name="comma.tabular" horiz-adv-x="202" 
d="M-3 -85l5 28h18l8 8l9 49h-25l16 92h56l-27 -154l-23 -23h-37z" />
    <glyph glyph-name="period.tabular" horiz-adv-x="202" 
d="M12 0l16 92h56l-16 -92h-56z" />
    <glyph glyph-name="parenleft.tabular" horiz-adv-x="245" 
d="M100 -51l-64 64l117 661l66 66h57l-6 -35h-31l-49 -49l-112 -630l42 -42h23l-6 -35h-37z" />
    <glyph glyph-name="parenright.tabular" horiz-adv-x="245" 
d="M148 740l64 -64l-117 -661l-66 -66h-57l6 35h31l49 49l112 630l-42 42h-23l6 35h37z" />
    <glyph glyph-name="bracketleft.tabular" horiz-adv-x="245" 
d="M19 -51l139 791h112l-6 -35h-72l-127 -721h72l-6 -35h-112z" />
    <glyph glyph-name="bracketright.tabular" horiz-adv-x="245" 
d="M229 740l-139 -791h-112l6 35h72l127 721h-72l6 35h112z" />
    <glyph glyph-name="braceleft.tabular" horiz-adv-x="245" 
d="M100 -51l-64 64l52 293l-31 31h-41l7 36h40l45 45l45 256l66 66h57l-6 -35h-31l-49 -49l-44 -246l-56 -56l39 -39l-51 -289l42 -42h23l-6 -35h-37z" />
    <glyph glyph-name="braceright.tabular" horiz-adv-x="245" 
d="M148 740l64 -64l-48 -273l31 -31h41l-7 -36h-40l-45 -45l-49 -276l-66 -66h-57l6 35h31l49 49l48 266l56 56l-39 39l47 269l-42 42h-23l6 35h37z" />
    <glyph glyph-name="zero.numerator" horiz-adv-x="279" 
d="M99 354l-50 50l41 236l50 50h98l50 -50l-41 -236l-50 -50h-98zM117 384h64l32 32l38 213l-31 31h-64l-32 -32l-38 -213z" />
    <glyph glyph-name="one.numerator" horiz-adv-x="222" 
d="M30 354l5 30h67l48 276h-66l5 30h102l-54 -306h65l-6 -30h-166z" />
    <glyph glyph-name="two.numerator" horiz-adv-x="252" 
d="M37 354l23 129l43 43h94l25 25l14 78l-32 32h-49l-33 -33l-8 -42h-36l10 54l50 50h85l50 -50l-18 -102l-41 -41h-94l-26 -26l-15 -87h144l-5 -30h-181z" />
    <glyph glyph-name="three.numerator" horiz-adv-x="268" 
d="M94 354l-50 50l10 54h35l-8 -43l31 -31h59l32 32l12 71l-23 23h-74l5 30h74l34 34l10 55l-31 31h-59l-32 -32l-8 -44h-36l10 56l50 50h93l50 -50l-12 -72l-43 -43l30 -30l-16 -91l-50 -50h-93z" />
    <glyph glyph-name="four.numerator" horiz-adv-x="270" 
d="M37 438l4 23l103 229h37l-99 -221h114l40 221h35l-39 -221h36l-5 -31h-37l-14 -84h-36l15 84h-154z" />
    <glyph glyph-name="five.numerator" horiz-adv-x="273" 
d="M99 354l-50 50l9 54h35l-7 -43l31 -31h59l32 32l18 96l-31 31h-64l-30 -30h-33l30 177h188l-6 -30h-151l-19 -110l23 23h80l50 -50l-21 -119l-50 -50h-93z" />
    <glyph glyph-name="six.numerator" horiz-adv-x="273" 
d="M99 354l-50 50l41 236l50 50h94l50 -50l-8 -48h-36l7 37l-31 31h-60l-32 -32l-19 -104l30 30h82l47 -47l-17 -103l-50 -50h-98zM134 524l-35 -35l-13 -74l31 -31h64l32 32l14 80l-28 28h-65z" />
    <glyph glyph-name="seven.numerator" horiz-adv-x="208" 
d="M73 354l26 148l108 158h-147l5 30h191l-4 -21l-117 -169l-27 -146h-35z" />
    <glyph glyph-name="eight.numerator" horiz-adv-x="273" 
d="M91 354l-50 50l13 78l43 43l-30 30l15 85l50 50h101l50 -50l-12 -72l-43 -43l30 -30l-16 -91l-50 -50h-101zM109 384h67l32 32l12 71l-23 23h-74l-34 -34l-11 -61zM128 540h74l34 34l10 55l-31 31h-67l-32 -32l-11 -65z" />
    <glyph glyph-name="nine.numerator" horiz-adv-x="271" 
d="M95 354l-50 50l9 54h36l-8 -43l31 -31h60l32 32l19 106l-30 -30h-82l-47 47l17 101l50 50h98l50 -50l-41 -236l-50 -50h-94zM130 522h65l35 35l13 72l-31 31h-64l-32 -32l-14 -78z" />
    <glyph glyph-name="zero.denominator" horiz-adv-x="279" 
d="M39 0l-50 50l41 236l50 50h98l50 -50l-41 -236l-50 -50h-98zM57 30h64l32 32l38 213l-31 31h-64l-32 -32l-38 -213z" />
    <glyph glyph-name="one.denominator" horiz-adv-x="222" 
d="M-30 0l5 30h67l48 276h-66l5 30h102l-54 -306h65l-6 -30h-166z" />
    <glyph glyph-name="two.denominator" horiz-adv-x="252" 
d="M-23 0l23 129l43 43h94l25 25l14 78l-32 32h-49l-33 -33l-8 -42h-36l10 54l50 50h85l50 -50l-18 -102l-41 -41h-94l-26 -26l-15 -87h144l-5 -30h-181z" />
    <glyph glyph-name="three.denominator" horiz-adv-x="268" 
d="M34 0l-50 50l10 54h35l-8 -43l31 -31h59l32 32l12 71l-23 23h-74l5 30h74l34 34l10 55l-31 31h-59l-32 -32l-8 -44h-36l10 56l50 50h93l50 -50l-12 -72l-43 -43l30 -30l-16 -91l-50 -50h-93z" />
    <glyph glyph-name="four.denominator" horiz-adv-x="270" 
d="M-23 84l4 23l103 229h37l-99 -221h114l40 221h35l-39 -221h36l-5 -31h-37l-14 -84h-36l15 84h-154z" />
    <glyph glyph-name="five.denominator" horiz-adv-x="273" 
d="M39 0l-50 50l9 54h35l-7 -43l31 -31h59l32 32l18 96l-31 31h-64l-30 -30h-33l30 177h188l-6 -30h-151l-19 -110l23 23h80l50 -50l-21 -119l-50 -50h-93z" />
    <glyph glyph-name="six.denominator" horiz-adv-x="273" 
d="M39 0l-50 50l41 236l50 50h94l50 -50l-8 -48h-36l7 37l-31 31h-60l-32 -32l-19 -104l30 30h82l47 -47l-17 -103l-50 -50h-98zM74 170l-35 -35l-13 -74l31 -31h64l32 32l14 80l-28 28h-65z" />
    <glyph glyph-name="seven.denominator" horiz-adv-x="208" 
d="M13 0l26 148l108 158h-147l5 30h191l-4 -21l-117 -169l-27 -146h-35z" />
    <glyph glyph-name="eight.denominator" horiz-adv-x="273" 
d="M31 0l-50 50l13 78l43 43l-30 30l15 85l50 50h101l50 -50l-12 -72l-43 -43l30 -30l-16 -91l-50 -50h-101zM49 30h67l32 32l12 71l-23 23h-74l-34 -34l-11 -61zM68 186h74l34 34l10 55l-31 31h-67l-32 -32l-11 -65z" />
    <glyph glyph-name="nine.denominator" horiz-adv-x="271" 
d="M35 0l-50 50l9 54h36l-8 -43l31 -31h60l32 32l19 106l-30 -30h-82l-47 47l17 101l50 50h98l50 -50l-41 -236l-50 -50h-94zM70 168h65l35 35l13 72l-31 31h-64l-32 -32l-14 -78z" />
    <glyph glyph-name="B.swash" horiz-adv-x="369" 
d="M3 0l116 655h-154l6 35h325l68 -68l-35 -199l-65 -65l45 -45l-43 -245l-68 -68h-195zM49 35h129l51 51l38 216l-40 40h-124zM159 655l-49 -277h124l57 57l31 174l-46 46h-117z" />
    <glyph glyph-name="D.swash" horiz-adv-x="374" 
d="M3 0l116 655h-154l6 35h326l68 -68l-98 -554l-68 -68h-196zM49 35h130l51 51l93 523l-46 46h-118z" />
    <glyph glyph-name="H.swash" horiz-adv-x="375" 
d="M210 0l57 324h-167l-57 -324h-40l114 643l-12 12h-140l6 35h154l34 -34l-52 -294h167l58 328h40l-122 -690h-40z" />
    <glyph glyph-name="K.swash" horiz-adv-x="374" 
d="M248 0l-61 359l-112 -176l-32 -183h-40l114 643l-12 12h-140l6 35h154l34 -34l-70 -396l254 430h43l-170 -285l72 -405h-40z" />
    <glyph glyph-name="M.swash" horiz-adv-x="520" 
d="M-29 690h222l12 -652l242 652h70l-122 -690h-39l116 658l-244 -658h-58l-13 658l-116 -658h-38l116 655h-154z" />
    <glyph glyph-name="N.swash" horiz-adv-x="388" 
d="M-29 690h196l75 -593l105 593h38l-122 -690h-42l-75 596l-105 -596h-38l116 655h-154z" />
    <glyph glyph-name="P.swash" horiz-adv-x="350" 
d="M3 0l116 655h-154l6 35h319l68 -68l-48 -266l-68 -68h-148l-51 -288h-40zM159 655l-59 -332h122l51 51l43 235l-46 46h-111z" />
    <glyph glyph-name="R.swash" horiz-adv-x="370" 
d="M-29 690h320l68 -68l-39 -223l-79 -79l28 -285h41l-6 -35h-71l-30 318h-104l-56 -318h-40l116 655h-154zM159 655l-53 -301h119l57 57l35 198l-46 46h-112z" />
    <glyph glyph-name="U.swash" horiz-adv-x="366" 
d="M80 0l-68 68l102 575l-12 12h-140l6 35h154l34 -34l-102 -575l46 -46h71l51 51l107 604h40l-110 -622l-68 -68h-111z" />
    <glyph glyph-name="V.swash" horiz-adv-x="330" 
d="M75 0l11 640l-15 15h-140l6 35h154l34 -34l-13 -620l209 654h39l-223 -690h-62z" />
    <glyph glyph-name="W.swash" horiz-adv-x="505" 
d="M55 0l39 643l-12 12h-140l6 35h154l34 -34l-43 -613l197 647h58l-19 -647l172 647h39l-190 -690h-58l20 648l-198 -648h-59z" />
    <glyph glyph-name="X.swash" horiz-adv-x="336" 
d="M211 0l-45 324l-156 -324h-42l174 356l-39 282l-17 17h-135l6 35h149l34 -34l36 -275l152 309h40l-168 -337l51 -353h-40z" />
    <glyph glyph-name="Y.swash" horiz-adv-x="310" 
d="M76 0l42 237l-38 401l-17 17h-135l6 35h149l34 -34l33 -356l173 390h39l-204 -453l-42 -237h-40z" />
  </font>
</defs>
</svg>
